<svg xmlns="http://www.w3.org/2000/svg" viewBox="0 0 522.57 159.98"><defs><style>.cls-1{fill:#001728;}.cls-2{fill:#fafff3;}</style></defs><title>LOGO-PapaHoe-LogoSticker</title><g id="Layer_2" data-name="Layer 2"><g id="Layer_1-2" data-name="Layer 1"><path class="cls-1" d="M505.51,134.11a191.88,191.88,0,0,0-69.27,15c-4.87,2.07-9.75,4.36-15.05,4.94-4.66.5-9.35-.36-14-1.07-42.93-6.55-86.69.25-130,3.76-71.16,5.77-142.76,2.65-214.11-.48-5.06-.22-10.25-.47-14.9-2.37-5.73-2.35-10-7-13.92-11.54a239,239,0,0,1-25.93-37C-.13,90.4-4.39,64,6.58,49.12c3.21-4.35,7.91-7.91,12.36-11.56C36.21,23.41,52.29,6.18,76.64,1.36c23.15-4.59,46.88,3.44,69.58,9.22,61.62,15.69,121.19,7.5,184.44,9.13,27.74.72,55.45,2.07,83.11,3.87,20.11,1.31,56.85-1.73,70.34,12.07,12.5,12.79,17.78,24.28,23.49,39.75,5.19,14.07,14.25,31.72,14.25,46.42.9,3.66,1.49,8.15-1.56,10.58-2.07,1.66-5.06,1.66-7.78,1.64C510.18,134,507.84,134,505.51,134.11Z"/><path class="cls-2" d="M400,116.84h0c.28-8,10.43-38.65,13.77-48.71.48-1.47.84-2.54,1-3.12,2.27-7.42,4.11-13.19,4.6-14.42a22.2,22.2,0,0,0,.88-4c-.06-2.18-2-4.73-3.57-4.79h-.33l-.09,0c-1.48.39-1.52.55-4.07,8.94l-.44,1.45c-3,10.22-6.46,21.38-9.94,32.31-4.46,1.12-10,1.1-14.35,1L380,85.18l-2.86,0a4.36,4.36,0,0,1-1.5-.22c-.09,0-.17-.1-.16-.43a14.71,14.71,0,0,1,1-3.27c.57-1.52,1.34-3.59,2.18-6.33,1.11-3.51,2.46-7.11,3.77-10.6,1.08-2.88,2.19-5.86,3.17-8.76,1.17-3.42,2.48-7,3.87-10.63l.06-.17a1.13,1.13,0,0,0,.35-.79,4.36,4.36,0,0,0-2.67-3.55,4.63,4.63,0,0,0-1.77-.47,2.08,2.08,0,0,0-2.23,1.85c-.44,1.68-1.67,6.27-3.67,12.47L372.48,75c-1.65,4.84-2.9,8.07-3.33,9-2.47-.09-5-.22-7.09-.37l-5.3-.3c-2.94-.1-6.11-.1-7.08,0a7,7,0,0,0-2.79,1.28,3.5,3.5,0,0,0-1.11,2.56c-.07,2.1,1.41,4.65,4.4,7.6,3.33,3.11,5.22,20.54,4.86,30.77a21.22,21.22,0,0,1-.65,5.47,7.86,7.86,0,0,0-.45,2,2.07,2.07,0,0,0,1,1.74l.07.05a3,3,0,0,0,2.15.85l1.09-.08.13,0c1.37-.41,1.86-1,2.19-2.63,1.54-13.66,9.16-34.09,12.52-42.63,3.33-.2,10.9.07,14.19.18l1.61.18a64.72,64.72,0,0,0,10.6-.7l.76-.09L396.57,102c-.64,2.42-2.71,11.67-2.8,14.49l0,.56,0,.08c.32,1.36,3.45,5.26,4.74,5.31h.09a1.91,1.91,0,0,0,1.8-2.11,8.89,8.89,0,0,0-.31-2.25A4.66,4.66,0,0,1,400,116.84Zm-40.29-6.39c-1-12-2.17-13.7-4.61-17.09-.72-1-1.54-2.13-2.49-3.73l-.05-.15a1.44,1.44,0,0,1-.11-.55c0-.1.21-.59,4-.46l2.6.09c2,.23,4.41.4,7.13.49a3.8,3.8,0,0,1,.71.1C365.6,93.72,361.59,105.41,359.74,110.45ZM471.56,90.17a1.87,1.87,0,0,0-1.22.25c-2.66,1.87-16.58,10.34-22,10.34-1.47,0-1.63-.61-1.71-.92a4.33,4.33,0,0,1-.2-.76,3.44,3.44,0,0,1,1.88-2.79c4.64-1.7,13.28-4.86,13.28-11.53a5.08,5.08,0,0,0-.13-1.4c-.4-3.12-2.8-6.07-4.93-6.07-3.25,0-9.12,5.32-12.54,11.33l-.63.95a6.55,6.55,0,0,0-2.69,2c-.12.13-.23.25-.34.35a13.61,13.61,0,0,1-3.46,2.66,10.69,10.69,0,0,1-5,1.26l-1-.06c2.41-3.62,4.66-9.13,4.66-13.54,0-4.57-2.37-5.92-4.36-6.25h-.46c-5.26,0-19.32,15.36-21.47,19.32a11.31,11.31,0,0,0-1.65,5.36c0,2.13.88,5.12,5,7.28a6.34,6.34,0,0,0,3.05.67c5.49,0,10.32-6.07,12-8.39h0a22.56,22.56,0,0,0,2.58.2,15.44,15.44,0,0,0,10.37-4c0,.28,0,.56,0,.83a9.14,9.14,0,0,0,1.54,5.24c1.1,1.85,3.12,2.83,5.81,2.83,9.24,0,24.87-11.2,25.34-12.13a3.19,3.19,0,0,0,.42-1.36C473.73,90.83,472.88,90.17,471.56,90.17ZM455.65,83.8a7.29,7.29,0,0,1-.44,1.5c-.65,2.06-.68,2.18-4.23,3.84l-.86.36C451.75,87.52,454.53,84.44,455.65,83.8Zm-41.13,19.36h-.39c-.43-.12-.58-.22-.68-1.19v-.36c0-1.42,1.36-3.94,3.74-7l1.26,1.43a18.21,18.21,0,0,0,2.94,2.24C418.69,101.36,416.15,103.16,414.52,103.16ZM429,85.76c-.22,1.64-1.86,4.82-4.12,8a18.34,18.34,0,0,1-1.58-1.16A14.87,14.87,0,0,1,421.19,90c4.34-4.45,6.76-6.31,7.44-6.55l.07,0a3.26,3.26,0,0,1,.37,1.56ZM234.72,75c2.07-4.52,4.43-9.64,4.43-14.53A12,12,0,0,0,235,51c-4.14-3.8-10.15-5.82-17.38-5.82-8.51,0-18.28,2.88-24.89,7.33-5.61,3.74-8.33,8.35-8.33,14.1,0,4,1.3,8.17,2.55,12.2a61.74,61.74,0,0,1,2.27,8.71,53.2,53.2,0,0,1,.35,6.89c0,5.62-.55,13-1.75,15.87-.68,1.52-1.26,3-1.87,4.58-.36.94-.74,1.91-1.14,2.89l-.13.29a7.52,7.52,0,0,0-.88,3.08,6.6,6.6,0,0,0,.26,1.48l0,.07a6.33,6.33,0,0,0,2.85,3.34l.25.12.25-.12c1.68-.79,1.9-1.34,2.06-2.58a10.22,10.22,0,0,1,.21-1.23c.43-2.27,4.85-13.83,6.66-17.49,14.56-2.32,30.86-16.76,38.3-29.54ZM221,84l-.85,1c-2.63,3-17.17,13.63-22.57,16.09,1.27-3.24,3.69-8.52,6.23-14.08,5.12-11.16,10.91-23.82,10.91-27.36v-.4l-.35-.3c-1.47-1.24-2-1.71-4.35-1.71h-.32l-.18.26c-1.06,1.51-3.28,7.86-5.44,14-1.34,3.84-2.62,7.48-3.29,9-2.29,5.71-4.33,10.42-5.59,12.94,0-.36,0-.7,0-1,0-4.76-1.38-8.74-2.72-12.59s-2.52-7.28-2.58-11.47c0-6.64,1.63-8.23,5.32-11.21,4.76-4,16.05-7.44,24.64-7.44,4.39,0,10.13.85,12.47,4.89a11,11,0,0,1,1.6,5.93C234,68.72,226.16,77.92,221,84Zm80,2v-.08c0-3.68-2.62-6.15-6.51-6.15a7.13,7.13,0,0,0-2.29.25c-4.27.88-12.27,5.24-16.39,8a37.25,37.25,0,0,0,5-10.61v-1c0-2-.95-2.84-3-4a2.52,2.52,0,0,0-1.42-.46c-1.33,0-2.3,1.27-2.3,3,0,1.24-1.48,6.43-4.36,10.86L268.94,87c-.83,1.31-2,3.18-3.39,5.42-.27.24-.54.49-.84.78-3.62,3.5-7,6.81-9.57,6.81a2.73,2.73,0,0,1-1.88-.82,7.44,7.44,0,0,1-.4-2.54c0-3.87,3.11-7.54,5.6-10.5,2-2.35,3.55-4.2,3.55-5.87,0-1.38-.92-2.35-2.87-3l-.48-.12-.15,0a1.19,1.19,0,0,0-.69.29,1,1,0,0,1-.15.11,1.32,1.32,0,0,0-.52.35,55.21,55.21,0,0,0-5.8,5c-1.09-3.32-3.33-4.06-5.11-4.06-7.38,0-19.75,13.19-19.75,21.06a5.36,5.36,0,0,0,3,5,4.9,4.9,0,0,0,2.32.55c1.48,0,3.3-.68,5.72-2.13a33.68,33.68,0,0,0,4.72-3.47A24.35,24.35,0,0,1,246.15,97c0,.14.07.29.11.43.56,2.25,1.86,7.53,7.8,7.53a11.69,11.69,0,0,0,3.41-.51,7.76,7.76,0,0,0,1.3-.49c-6.57,11.84-9.9,20.35-9.9,25.3a6.65,6.65,0,0,0,.81,3.43l.07.12.12.08a4.4,4.4,0,0,0,2.26.83c.68,0,2.26-.33,2.29-3.28,7.27-22.5,13.36-28.86,16.63-32.29l.27-.28c.93,2.59,3.5,5.93,4.56,6.52a10.41,10.41,0,0,0,5.13,1.17,11.71,11.71,0,0,0,5.33-1.15l.55-.27c.72-.35,1.69-.82,2.46-1.29,4.24-1.79,10.5-10,11.4-15ZM233.62,98.05c1.46-4.9,6.87-12.74,12.14-12.74a5,5,0,0,1,2.85.83C245,90.53,238.4,96.07,233.62,98.05Zm59-8.31a21.8,21.8,0,0,1-9.32,9.57,6.88,6.88,0,0,1-2.88.67c-2.76,0-5.37-2-7.23-3.68,2.73-1.94,15-10.14,19.26-10.14.82,0,1,.25,1,.83A7.27,7.27,0,0,1,292.61,89.74Zm47.73.25c-.7,0-1.73.54-4.52,3.18-3.61,3.5-7,6.81-9.56,6.81a2.74,2.74,0,0,1-1.89-.82,7.49,7.49,0,0,1-.39-2.54c0-3.87,3.1-7.54,5.59-10.5,2-2.35,3.55-4.2,3.55-5.87,0-1.38-.92-2.35-2.86-3l-.49-.12-.14,0a1.19,1.19,0,0,0-.69.29l-.16.11a1.22,1.22,0,0,0-.51.35,55.31,55.31,0,0,0-5.81,5c-1.08-3.32-3.33-4.06-5.11-4.06C310,78.8,297.61,92,297.61,99.86a5.36,5.36,0,0,0,3,5,4.93,4.93,0,0,0,2.32.55c1.48,0,3.3-.68,5.72-2.13a34.4,34.4,0,0,0,4.73-3.47,24.29,24.29,0,0,1,3.9-2.84c0,.14.08.29.11.43.56,2.25,1.87,7.53,7.8,7.53a11.71,11.71,0,0,0,3.42-.51c4.09-1.15,8.77-6.64,10.65-9.34,1-1.22,2.07-3,2.07-4A1,1,0,0,0,340.34,90Zm-35.6,8.06c1.45-4.9,6.86-12.74,12.13-12.74a5,5,0,0,1,2.85.83C316.1,90.53,309.51,96.07,304.74,98.05Z"/><path class="cls-2" d="M142.74,76.15c-5.8-4.8-12.43-8.33-19.18-11.58-6.9-3.33-14.15-6.15-21.8-7.1-9.27-1.16-19.55.18-28.47,2.83a44,44,0,0,0-11.64,5.14c-4.2,2.72-8.32,7-9.35,12.07s1.38,10.92,4.94,14.63c4.08,4.26,9.81,6.62,15.61,7.66s11.75.86,17.64.71a99.73,99.73,0,0,0,12.93-.9C112,98.25,120.05,94.6,128,91a75.62,75.62,0,0,0,8.18-4.15c2.52-1.55,4.33-3.62,6.58-5.44a4.23,4.23,0,0,0,.48-.47A3.4,3.4,0,0,0,142.74,76.15ZM102.53,89.09A12.26,12.26,0,0,1,93,91a9,9,0,0,1-4.23-2.15,28.47,28.47,0,0,1-3-3.3,17.64,17.64,0,0,1-2.37-3.82,11.43,11.43,0,0,1-1.09-4.65,10.67,10.67,0,0,1,4.58-8.54,12.4,12.4,0,0,1,9.41-2,11.82,11.82,0,0,1,7.7,5.06,12.13,12.13,0,0,1,3.47,8.82A11.58,11.58,0,0,1,102.53,89.09ZM82.66,94.3a49.44,49.44,0,0,1-11.44-2c-3.64-1.13-7-2.84-9.14-5.34A10.16,10.16,0,0,1,60,82.6a11.43,11.43,0,0,1-.18-4.94c.67-2.84,2.84-5.38,5.73-7.27a35.9,35.9,0,0,1,9.82-4.11,53.74,53.74,0,0,1,5.33-1.14c1.13-.21,2.27-.39,3.39-.53l-.17.13a20,20,0,0,0-4.52,5.17,22.82,22.82,0,0,0-2.56,6.44,18.78,18.78,0,0,0-.29,7.18,15.64,15.64,0,0,0,2.87,6.81,14,14,0,0,0,4.79,4ZM132,78.9a3.33,3.33,0,0,1-.7,1.39A12.29,12.29,0,0,1,128.47,83a38.9,38.9,0,0,1-6.83,3.42,98.37,98.37,0,0,1-16.42,6,19.79,19.79,0,0,0,6.86-18.41,18,18,0,0,0-2.66-6.68c-.23-.27-.46-.53-.7-.79a87.91,87.91,0,0,1,9.59,3.34c2.38,1,4.71,2.13,7,3.34,1.93,1,4.34,2,5.92,3.63A2.39,2.39,0,0,1,132,78.9ZM53.76,53.16a3,3,0,0,1,0-4.47c1.29-1.45,2.62-1.62,4.4-.46,2.38,1.54,4.72,3.13,6.94,4.9,1.56,1.26,1.62,2.66.08,4-1.07.92-2.24,1.72-3.41,2.6C58.64,58.12,56.17,55.65,53.76,53.16Zm31.57-12.8a1.77,1.77,0,0,1,.45-1.63c1.52-1.51,5.15-1.11,6.2.76a17.24,17.24,0,0,1,1.82,4.74,6.81,6.81,0,0,1,.32,3.33A5.23,5.23,0,0,1,89,51.69c-1.22,0-2.06-.82-2.36-2.44-.36-1.91-.61-3.83-.91-5.75C85.62,42.45,85.46,41.4,85.33,40.36Zm-17,4.17a2.76,2.76,0,0,1,.81-3.5,3,3,0,0,1,3.62-.15A7.7,7.7,0,0,1,75,43.56a21.18,21.18,0,0,1,3.07,6.54c.25,1,0,1.63-1,1.91s-2,.45-2.91.72c-.76.21-1.07-.34-1.45-.77a24.63,24.63,0,0,1-3.49-5.52C68.92,45.8,68.57,45.18,68.3,44.53Zm34.42,4.76a55.34,55.34,0,0,0,.44-8.63,3.06,3.06,0,0,1,2.1-3.07,3.14,3.14,0,0,1,4.16,2.51A11.67,11.67,0,0,1,106,50.73c-.65.67-1.41,1.35-2.48.87S102.62,50.14,102.72,49.29Zm12.93,3.49a4.47,4.47,0,0,1,.13-3.56c.8-1.44,1.66-2.85,2.55-4.24a2,2,0,0,1,2.21-1.08c1.11.27,1.25,1.23,1.25,2.09a12.94,12.94,0,0,1-1.48,7c-.51.85-1.09,1.71-2.11,1.62A3.82,3.82,0,0,1,115.65,52.78Zm11.15,5.94c.17-2.32,1.46-4.29,2.27-6.4a1.41,1.41,0,0,1,2.54.16,5.62,5.62,0,0,1-.1,5.41C130.61,59.47,129.08,59.72,126.8,58.72Zm9.53,4.58a1.79,1.79,0,0,1-.56-2.07,6.93,6.93,0,0,1,1.57-2.43c.52-.52,1.13-1.13,2.07-.7a2.09,2.09,0,0,1,1.18,2.17,4.34,4.34,0,0,1-2.53,3.53A1.51,1.51,0,0,1,136.33,63.3ZM99.69,75c2,2.23,1.88,7.16-2.16,8.37-2.77.83-5,.46-6.78-1.36a4.22,4.22,0,0,1-1.1-5.17A6,6,0,0,1,99.69,75Zm36.52,22.7a21.48,21.48,0,0,1,2.57,14.75c-.92,4.33-4.31,8.69-9.24,6.77-2.31-.9-3.64-5.5-5.21-6-2.54-.74-5.32,3.39-6.26,5.07a18.07,18.07,0,0,1-1.88,3.06c-3.06,3.61-7.22,4-10.13.24-1.84-2.39-3-5.63-6.62-5.2-3.84.45-3.79,4.72-6.35,6.68-4,3-8.17-.42-10.57-3.54-2.59-3.37-5.64-7.43-9.26-2.88-1.28,1.6-1.72,4.14-3.93,4.89-6.39,2.18-7.22-9.5-11.29-11.33-.69-.31-.89-4-.1-4.07,5.47-.46,4.28,8,9.72,7.72,4.13-.22,4-6.63,8.71-6.44,5.37.23,6.72,7.69,12.16,8.37,5.24.64,4.93-5.65,8.75-7.53,3.66-1.79,6.26.39,8.29,3.22,5.59,7.82,9.2,1.32,12.82-4.63,1.82-3,4-4.66,6.93-2,2,1.86,2.52,5.34,5.84,5.5,4.85.23,4.08-3.77,3.27-7.06C134.23,102.46,134.8,95.12,136.21,97.65Z"/></g></g></svg>