<svg xmlns="http://www.w3.org/2000/svg" viewBox="0 0 260.13 355.14"><defs><style>.cls-1{fill:#fff;}.cls-2{fill:#4884ef;}</style></defs><title>LOGO-PapaHoe-FullVersion-Negativo</title><g id="Layer_2" data-name="Layer 2"><g id="Layer_1-2" data-name="Layer 1"><path class="cls-1" d="M194,338.33h0c.25-7.21,9.35-34.67,12.34-43.7l.93-2.79c2-6.67,3.68-11.84,4.12-12.94a20.94,20.94,0,0,0,.79-3.6c-.05-1.95-1.76-4.24-3.2-4.29h-.3l-.08,0c-1.32.35-1.37.49-3.65,8l-.39,1.31c-2.72,9.16-5.8,19.18-8.93,29-4,1-9,1-12.87.85l-6.71-.24-2.57,0a3.78,3.78,0,0,1-1.34-.2c-.08-.05-.15-.09-.14-.38a13.05,13.05,0,0,1,.91-2.94c.51-1.36,1.21-3.22,2-5.67,1-3.15,2.21-6.39,3.38-9.52,1-2.58,2-5.25,2.84-7.86,1.06-3.07,2.23-6.27,3.48-9.53l0-.15a1,1,0,0,0,.31-.72,3.91,3.91,0,0,0-2.39-3.18,4.38,4.38,0,0,0-1.59-.42,1.87,1.87,0,0,0-2,1.66c-.39,1.51-1.5,5.63-3.29,11.18l-6.38,18.58c-1.48,4.34-2.6,7.24-3,8-2.21-.09-4.46-.2-6.36-.33l-4.75-.28c-2.64-.09-5.49-.09-6.36,0a6.26,6.26,0,0,0-2.49,1.15,3.11,3.11,0,0,0-1,2.3c-.07,1.88,1.26,4.17,3.95,6.81,3,2.8,4.67,18.43,4.35,27.61a18.85,18.85,0,0,1-.58,4.91,7,7,0,0,0-.4,1.75,1.82,1.82,0,0,0,.9,1.56l.06.05a2.76,2.76,0,0,0,1.94.77l1-.08.12,0c1.23-.36,1.67-.88,2-2.35,1.39-12.26,8.22-30.59,11.24-38.24,3-.18,9.77.05,12.73.15l1.44.16a56.92,56.92,0,0,0,9.51-.63l.68-.08-3.31,11c-.57,2.17-2.43,10.46-2.52,13v.58c.29,1.22,3.09,4.72,4.25,4.76h.08a1.71,1.71,0,0,0,1.62-1.89,7.82,7.82,0,0,0-.28-2A4.19,4.19,0,0,1,194,338.33Zm-36.15-5.73c-.87-10.8-2-12.29-4.14-15.33-.64-.9-1.37-1.91-2.23-3.35l0-.14a1.29,1.29,0,0,1-.1-.49c0-.09.19-.52,3.57-.41l2.33.08c1.8.21,3.95.36,6.4.44a3.82,3.82,0,0,1,.63.09C163.11,317.59,159.52,328.08,157.86,332.6Zm100.32-18.2a1.64,1.64,0,0,0-1.1.23c-2.39,1.68-14.87,9.27-19.74,9.27-1.33,0-1.46-.54-1.54-.82a3.87,3.87,0,0,1-.18-.68,3.1,3.1,0,0,1,1.69-2.51c4.16-1.52,11.91-4.35,11.91-10.34a4.77,4.77,0,0,0-.11-1.25c-.36-2.8-2.52-5.45-4.43-5.45-2.91,0-8.18,4.77-11.24,10.17-.2.28-.39.56-.57.85a5.75,5.75,0,0,0-2.41,1.78c-.11.12-.21.23-.31.32a12.35,12.35,0,0,1-3.11,2.39,9.49,9.49,0,0,1-4.46,1.12l-.85-.05c2.16-3.24,4.18-8.19,4.18-12.14,0-4.1-2.13-5.32-3.92-5.62h-.41c-4.72,0-17.33,13.77-19.26,17.33a10.09,10.09,0,0,0-1.47,4.8c0,1.92.78,4.6,4.51,6.54a5.77,5.77,0,0,0,2.73.6c4.93,0,9.26-5.45,10.73-7.53h0a20.1,20.1,0,0,0,2.31.19,13.88,13.88,0,0,0,9.31-3.56,6.23,6.23,0,0,0,0,.74,8.23,8.23,0,0,0,1.38,4.71c1,1.66,2.8,2.53,5.22,2.53,8.28,0,22.3-10,22.72-10.88a2.79,2.79,0,0,0,.39-1.22C260.13,315,259.36,314.4,258.18,314.4Zm-14.28-5.71a6.08,6.08,0,0,1-.39,1.35c-.58,1.84-.62,1.95-3.79,3.44l-.78.33C240.4,312,242.89,309.26,243.9,308.69ZM207,326.06h-.36c-.38-.11-.52-.2-.61-1.07v-.32c0-1.27,1.22-3.54,3.36-6.27l1.13,1.28a15.93,15.93,0,0,0,2.64,2C210.74,324.44,208.47,326.06,207,326.06Zm13-15.61c-.2,1.47-1.67,4.33-3.7,7.21-.49-.34-1-.67-1.42-1a13.92,13.92,0,0,1-1.85-2.35c3.89-4,6.06-5.66,6.67-5.87l.07,0a3,3,0,0,1,.33,1.4ZM45.7,300.83c1.86-4.05,4-8.64,4-13a10.72,10.72,0,0,0-3.73-8.5c-3.72-3.41-9.11-5.22-15.6-5.22A42.66,42.66,0,0,0,8,280.65C3,284,.54,288.15.54,293.31c0,3.59,1.16,7.33,2.29,10.94a55.77,55.77,0,0,1,2,7.81,47.06,47.06,0,0,1,.32,6.19c0,5-.49,11.65-1.57,14.24-.61,1.35-1.13,2.69-1.68,4.1-.32.85-.66,1.71-1,2.59l-.12.26A6.83,6.83,0,0,0,0,342.21a6.21,6.21,0,0,0,.23,1.32l0,.07a5.63,5.63,0,0,0,2.55,3l.23.1.22-.11c1.51-.7,1.7-1.19,1.85-2.31a8,8,0,0,1,.19-1.1c.38-2,4.34-12.41,6-15.69,13.06-2.08,27.68-15,34.36-26.5Zm-12.31,8.05-.76.91c-2.36,2.66-15.4,12.23-20.25,14.43,1.15-2.91,3.32-7.65,5.6-12.63,4.58-10,9.78-21.37,9.78-24.54v-.37l-.31-.26a4.69,4.69,0,0,0-3.91-1.54h-.28l-.17.23c-.94,1.36-2.94,7.06-4.87,12.57-1.21,3.45-2.35,6.71-3,8.05-2,5.13-3.88,9.34-5,11.61q0-.48,0-.93c0-4.28-1.24-7.85-2.43-11.3s-2.27-6.53-2.32-10.29c0-6,1.46-7.38,4.77-10.06,4.28-3.61,14.4-6.67,22.1-6.67,4,0,9.09.76,11.2,4.39A9.85,9.85,0,0,1,45,287.8C45,295.16,38,303.42,33.39,308.88Zm71.76,1.77v-.07c0-3.3-2.35-5.51-5.84-5.51a6.49,6.49,0,0,0-2,.22c-3.83.79-11,4.7-14.71,7.14A33.16,33.16,0,0,0,87,302.91v-.86c0-1.77-.85-2.54-2.72-3.58a2.29,2.29,0,0,0-1.28-.42c-1.19,0-2.06,1.14-2.06,2.71,0,1.11-1.33,5.77-3.91,9.75l-.65,1c-.74,1.17-1.8,2.84-3,4.86-.24.21-.49.44-.76.7-3.24,3.14-6.3,6.1-8.58,6.1a2.49,2.49,0,0,1-1.69-.73,6.74,6.74,0,0,1-.35-2.28c0-3.47,2.78-6.77,5-9.41,1.78-2.11,3.18-3.78,3.18-5.27,0-1.24-.82-2.11-2.57-2.69l-.43-.11-.13,0a1,1,0,0,0-.62.26l-.14.1a1.13,1.13,0,0,0-.46.31,48.55,48.55,0,0,0-5.21,4.49c-1-3-3-3.65-4.59-3.65-6.62,0-17.71,11.84-17.71,18.9A4.82,4.82,0,0,0,41,327.59a4.42,4.42,0,0,0,2.08.49c1.33,0,3-.61,5.13-1.91a31.6,31.6,0,0,0,4.24-3.11,22.23,22.23,0,0,1,3.5-2.55c0,.12.07.26.1.38.5,2,1.68,6.76,7,6.76a10.27,10.27,0,0,0,3.06-.46,7.07,7.07,0,0,0,1.17-.44C61.39,337.38,58.4,345,58.4,349.44a6,6,0,0,0,.72,3.08l.06.11.11.08a4,4,0,0,0,2,.74c.61,0,2-.29,2.06-2.95,6.51-20.18,12-25.89,14.92-29l.24-.25c.83,2.32,3.14,5.32,4.09,5.84a9.26,9.26,0,0,0,4.6,1.05,10.6,10.6,0,0,0,4.78-1l.5-.25c.64-.31,1.51-.73,2.21-1.16,3.79-1.6,9.41-9,10.22-13.48ZM44.72,321.48c1.3-4.4,6.16-11.43,10.88-11.43a4.46,4.46,0,0,1,2.56.74C54.91,314.73,49,319.7,44.72,321.48ZM97.64,314a19.62,19.62,0,0,1-8.36,8.58,6.12,6.12,0,0,1-2.59.6c-2.47,0-4.82-1.76-6.49-3.29,2.45-1.74,13.45-9.11,17.29-9.11.73,0,.85.23.85.75A6.42,6.42,0,0,1,97.64,314Zm42.81.22c-.62,0-1.55.49-4,2.86-3.24,3.14-6.3,6.1-8.58,6.1a2.48,2.48,0,0,1-1.69-.73,6.78,6.78,0,0,1-.35-2.28c0-3.47,2.78-6.77,5-9.41,1.78-2.11,3.18-3.78,3.18-5.27,0-1.24-.83-2.11-2.57-2.69l-.43-.11-.14,0a1,1,0,0,0-.62.26l-.13.1a1.13,1.13,0,0,0-.46.31,48.55,48.55,0,0,0-5.21,4.49c-1-3-3-3.65-4.59-3.65-6.62,0-17.71,11.84-17.71,18.9a4.82,4.82,0,0,0,2.68,4.49,4.4,4.4,0,0,0,2.08.49c1.33,0,3-.61,5.13-1.91a31.6,31.6,0,0,0,4.24-3.11,21.78,21.78,0,0,1,3.5-2.55l.1.38c.5,2,1.68,6.76,7,6.76a10.27,10.27,0,0,0,3.06-.46c3.67-1,7.88-6,9.56-8.38.89-1.09,1.85-2.68,1.85-3.59A.91.91,0,0,0,140.45,314.24Zm-31.93,7.24c1.3-4.4,6.15-11.43,10.88-11.43a4.46,4.46,0,0,1,2.56.74C118.71,314.73,112.8,319.7,108.52,321.48Z"/><path class="cls-1" d="M163.67,234.92c-4.71,0-9.09-2.13-12.66-6.17-1-1.17-2-2.44-2.92-3.68-3.47-4.58-7.06-9.32-14.32-9.32a16.59,16.59,0,0,0-1.84.1c-6.9.7-9.58,5.08-12.17,9.31-1.59,2.6-3.24,5.28-5.89,7.06a15.16,15.16,0,0,1-8.55,2.69c-8.94,0-16.78-7.81-19.73-11.16l-.23-.26c-4.92-5.59-10.5-11.93-17-11.93-3.39,0-6.59,1.69-9.78,5.19a27.14,27.14,0,0,0-3.11,4.48c-1.86,3.1-3.62,6-7.42,7.17a14,14,0,0,1-4,.62c-7.48,0-11.69-7.54-15.76-14.82-3.28-5.87-6.38-11.42-11.13-13.28-.38-.18-1.13-2.09-1.16-4.94,0-2.29.47-3.25.66-3.34.36,0,.73,0,1.08,0,6.33,0,9,4.34,11.72,8.93,2.92,4.85,5.94,9.86,13.39,9.86l.78,0c5.87-.27,8.87-4.18,11.77-8,3-3.94,5.86-7.65,11.82-7.65h.56c7.24.27,11.73,4.86,16.48,9.72s9.52,9.73,17.25,10.57a19.33,19.33,0,0,0,2.11.12c7.54,0,10.75-4.89,13.86-9.61,2.28-3.47,4.64-7.06,8.78-8.83a17.24,17.24,0,0,1,6.82-1.51c5.31,0,10.15,2.88,15.23,9.09s9.69,9,14.4,9c8.43,0,15.13-9.62,21.61-18.93l1-1.39c3.63-5.21,7.19-7.75,10.85-7.75,2.29,0,4.71,1,7.21,3a26.18,26.18,0,0,1,4.62,5.38c2.75,3.88,5.6,7.88,12.08,8.16l1.13,0c4.22,0,7.21-1.11,8.88-3.31,2.77-3.66,1.48-9.37-.08-14.91-.33-1.16.39-11.12,2.23-13.55.2-.26.32-.31.35-.31s.39.17.86.9c7.29,11.5,9.79,24,7.05,35.15-2.87,11.69-11.3,16.93-18.39,16.93a19.54,19.54,0,0,1-6.24-1.09c-3.19-1.09-5.8-4.79-8.1-8s-4.11-5.84-6.43-6.42a8.12,8.12,0,0,0-1.91-.23c-7.91,0-15.54,11.59-16.39,12.92-.31.48-.61,1-.92,1.46a33.93,33.93,0,0,1-4.22,5.83C173.71,232.52,168.64,234.92,163.67,234.92ZM88.74,174.05c-12.29,0-21.7-.7-30.49-2.28-12.54-2.24-30.17-7.72-42.95-21C4.45,139.42-.85,123.75,1.79,110.8c3.47-17,19.08-28.77,25.63-33,9-5.85,19.22-10.36,32.12-14.19a212.74,212.74,0,0,1,59.47-9,156.48,156.48,0,0,1,19.35,1.16C156.6,58,175.21,64.09,198.69,75.4c17.82,8.59,36.59,18.42,53.12,32.09a8.64,8.64,0,0,1,3.12,5.84A8.49,8.49,0,0,1,253,119.6a9.25,9.25,0,0,1-1.22,1.2c-2.25,1.82-4.36,3.75-6.41,5.61a77.47,77.47,0,0,1-11.79,9.44A204.74,204.74,0,0,1,211,147.33c-21.67,9.88-44.08,20.11-68,23.91-11.55,1.83-23.49,2.15-35,2.45l-1.65.05c-5.74.15-11.67.31-17.51.31ZM89.2,74c-3,.35-6.2.85-9.48,1.47a151.26,151.26,0,0,0-14.87,3.19c-11.07,3-20.08,6.78-27.52,11.52-8.7,5.67-14.48,13-16.29,20.71A32.63,32.63,0,0,0,21.52,125a28.85,28.85,0,0,0,6,12.31c5.32,6.36,14,11.45,25.81,15.13a137,137,0,0,0,32,5.72c1.43.1,2.85.18,4.28.25L90,156.8a37.78,37.78,0,0,1-13-11,42.7,42.7,0,0,1-7.83-18.56A50.69,50.69,0,0,1,70,107.6a62.2,62.2,0,0,1,7-17.68A54,54,0,0,1,89.35,75.79l.46-.35,2.35-1.83Zm69.86,9a49.2,49.2,0,0,1,7.25,18.22,54.17,54.17,0,0,1-18.78,50.4l.73,1.46c14-3.58,28.52-8.92,45.8-16.8,1.58-.72,3.15-1.4,4.7-2.07,5.13-2.22,10-4.32,14.41-7.51a35.17,35.17,0,0,0,7.94-7.84,10,10,0,0,0,2.1-4.21,7.43,7.43,0,0,0-2.21-6.24c-3.57-3.66-8.63-6.19-13.1-8.41-1.23-.62-2.44-1.22-3.59-1.83a215.66,215.66,0,0,0-19.55-9.34A249.77,249.77,0,0,0,158,79.5l-2.85-.8,2,2.17C157.9,81.63,158.51,82.33,159.06,83ZM116.54,78.7A35,35,0,0,0,96.38,85c-8.19,5.87-13.19,15.23-13.08,24.43a32.53,32.53,0,0,0,3.1,13.27,50.57,50.57,0,0,0,6.69,10.8,82.14,82.14,0,0,0,8.58,9.27,26.18,26.18,0,0,0,12.16,6.15,35.39,35.39,0,0,0,7.37.78,34.53,34.53,0,0,0,19.86-6.19,33,33,0,0,0,13.84-24.73,34.27,34.27,0,0,0-9.84-25.09,33.55,33.55,0,0,0-21.88-14.36A35.82,35.82,0,0,0,116.54,78.7ZM237.88,72a3.85,3.85,0,0,1-2.76-1.44c-1.67-1.71-2.1-3.24-1.38-4.82a18.58,18.58,0,0,1,4.16-6.49c1.07-1.07,2.14-2.12,3.46-2.12a3.35,3.35,0,0,1,1.38.33c2,.92,2.87,2.58,2.81,5.25-.09,3.44-3.24,7.85-6.49,9.06A3.25,3.25,0,0,1,237.88,72ZM27.33,60.21C19.13,56,12.64,49.61,5.63,42.37,2.34,39,2.4,34.86,5.77,31.07,7.66,29,9.48,28,11.48,28a10.19,10.19,0,0,1,5.44,2c5.84,3.79,12.69,8.37,19.21,13.59,2,1.59,3,3.22,3,4.86s-.93,3.29-2.84,4.95-4.14,3.29-6.39,4.94Zm187.27-1a15.27,15.27,0,0,1-5.67-1.35c.44-4.16,2.22-8,3.94-11.74.79-1.7,1.59-3.45,2.28-5.22a2.4,2.4,0,0,1,2.34-1.49,3.5,3.5,0,0,1,3.17,2c2.38,5,2.29,9.82-.25,14.27A6.3,6.3,0,0,1,214.6,59.23Zm-30.07-13-.33,0c-2.79-.24-4.69-2.41-6.39-4.65-1.11-4.07-1-6.71.33-9.11,2.11-3.78,4.42-7.62,7.06-11.74,1.2-1.88,2.55-2.79,4.13-2.79a5.06,5.06,0,0,1,1.13.14c2.34.57,2.83,2.42,2.84,5,0,7.42-.66,13.49-4,19C187.93,44.31,186.63,46.18,184.53,46.18ZM60.88,41.05c-.82,0-1.33-.55-2.09-1.46-.14-.18-.29-.35-.44-.52-4.07-4.56-7-10-9.58-15.17l-.83-1.66c-.6-1.17-1.21-2.39-1.72-3.6-1.49-3.61-.85-6.39,2-8.76a7,7,0,0,1,4.55-1.71,9,9,0,0,1,4.56,1.37C59.64,10.88,61,13,62.41,15.25c.32.5.63,1,1,1.48A57.9,57.9,0,0,1,71.8,34.65c.62,2.45,0,3.69-2.17,4.3-1.34.37-2.73.7-4.08,1s-2.69.62-4,1A2.24,2.24,0,0,1,60.88,41.05Zm84.34-2.82a3.75,3.75,0,0,1-1.61-.38c-2.07-.94-2-2.62-1.71-5.28l0-.29a152.18,152.18,0,0,0,1.24-24.12c-.14-3.55,1.69-6.22,5.31-7.72A8.08,8.08,0,0,1,151.13,0a7.93,7.93,0,0,1,7.78,6.79c1.9,10.78-1.26,20.47-9.37,28.83C148.25,36.94,146.86,38.23,145.22,38.23ZM103.11,38c-3.07-.08-5-2.13-5.76-6.1S96,24,95.46,20.16c-.2-1.4-.41-2.8-.62-4.2-.53-3.47-.91-6.16-1.24-8.71-.23-1.78.06-2.89,1-3.83a9.68,9.68,0,0,1,6.78-2.32c4,0,7.71,1.71,9.13,4.26a46.41,46.41,0,0,1,5,12.94v.05l0,0a18,18,0,0,1,.84,8.86c-1,5.85-6.92,10.78-13,10.78Z"/><path class="cls-2" d="M119.45,127.11a14.67,14.67,0,0,1-11-4.7c-4.11-3.6-5-7.87-2.86-13.47a15.64,15.64,0,0,1,14.66-10.19,15.9,15.9,0,0,1,11.85,5.34c2.94,3.22,4.09,8.71,2.8,13.34a12,12,0,0,1-8.43,8.54A24.4,24.4,0,0,1,119.45,127.11Z"/></g></g></svg>