<svg xmlns="http://www.w3.org/2000/svg" viewBox="0 0 443.15 146.1"><defs><style>.cls-1{fill:#001728;}</style></defs><title>LOGO-PapaHoe-LogoWord</title><g id="Layer_2" data-name="Layer 2"><g id="Layer_1-2" data-name="Layer 1"><path class="cls-1" d="M330.51,117.46h0c.42-12.28,15.94-59.07,21-74.44.74-2.24,1.29-3.88,1.57-4.76,3.47-11.35,6.28-20.17,7-22a35.47,35.47,0,0,0,1.35-6.13c-.1-3.33-3-7.23-5.46-7.32l-.51,0-.13,0c-2.26.59-2.34.84-6.22,13.66l-.67,2.22c-4.62,15.61-9.88,32.67-15.2,49.37-6.81,1.72-15.27,1.68-21.93,1.45l-11.43-.4-4.38,0a6.68,6.68,0,0,1-2.29-.35c-.13-.07-.26-.14-.24-.65a22.18,22.18,0,0,1,1.56-5c.86-2.32,2.05-5.49,3.34-9.67,1.69-5.36,3.75-10.87,5.75-16.2,1.65-4.4,3.35-8.95,4.84-13.4,1.8-5.22,3.79-10.69,5.92-16.24l.1-.25a1.79,1.79,0,0,0,.53-1.22c.07-2-2-4.74-4.08-5.42A7.17,7.17,0,0,0,308.28,0a3.16,3.16,0,0,0-3.4,2.82c-.67,2.58-2.56,9.6-5.62,19.06L288.4,53.52c-2.52,7.4-4.43,12.34-5.09,13.7-3.78-.14-7.6-.34-10.83-.56l-8.1-.47c-4.5-.16-9.35-.16-10.83,0a10.65,10.65,0,0,0-4.25,2,5.32,5.32,0,0,0-1.7,3.91c-.11,3.21,2.14,7.11,6.72,11.61,5.09,4.76,8,31.4,7.43,47-.15,4.13-.46,6.78-1,8.36a12,12,0,0,0-.69,3c0,1.31.69,1.93,1.54,2.66l.11.09a4.63,4.63,0,0,0,3.29,1.3l1.67-.13.19,0c2.1-.61,2.85-1.49,3.35-4,2.36-20.89,14-52.11,19.14-65.16,5.09-.3,16.66.1,21.69.27l2.45.27a97,97,0,0,0,16.21-1.07l1.16-.14-5.64,18.7c-1,3.7-4.14,17.83-4.29,22.14l0,.86,0,.12c.49,2.08,5.26,8,7.24,8.12h.13c1.76-.19,2.69-1.28,2.75-3.22a13,13,0,0,0-.48-3.44A7.45,7.45,0,0,1,330.51,117.46Zm-61.57-9.75c-1.49-18.4-3.33-20.95-7.06-26.13-1.1-1.52-2.35-3.25-3.8-5.7l-.08-.23a2.35,2.35,0,0,1-.17-.84c0-.15.33-.9,6.09-.7l4,.14c3.07.35,6.73.6,10.9.75a5.86,5.86,0,0,1,1.08.15C277.88,82.13,271.75,100,268.94,107.71Zm170.88-31a2.78,2.78,0,0,0-1.86.39c-4.07,2.86-25.34,15.8-33.63,15.8-2.26,0-2.49-.92-2.62-1.41a5.92,5.92,0,0,1-.31-1.15,5.28,5.28,0,0,1,2.88-4.28c7.09-2.59,20.29-7.42,20.29-17.61a8.13,8.13,0,0,0-.19-2.14c-.62-4.77-4.29-9.27-7.54-9.27-5,0-13.94,8.12-19.16,17.31-.33.47-.65,1-1,1.45a10,10,0,0,0-4.11,3l-.51.54a21.31,21.31,0,0,1-5.3,4.07,16.17,16.17,0,0,1-7.6,1.91l-1.46-.09c3.68-5.52,7.12-13.94,7.12-20.68,0-7-3.62-9.06-6.66-9.56l-.71,0c-8,0-29.52,23.48-32.81,29.53a17.26,17.26,0,0,0-2.51,8.19c0,3.26,1.33,7.84,7.68,11.13a9.68,9.68,0,0,0,4.65,1c8.4,0,15.78-9.27,18.29-12.82h0a36.56,36.56,0,0,0,3.94.31,23.62,23.62,0,0,0,15.85-6c0,.43-.05.84-.05,1.26a14,14,0,0,0,2.34,8c1.69,2.82,4.76,4.31,8.89,4.31,14.12,0,38-17.1,38.72-18.54a4.92,4.92,0,0,0,.65-2.07C443.15,77.72,441.84,76.7,439.82,76.7ZM415.5,67a11.07,11.07,0,0,1-.66,2.29c-1,3.15-1,3.34-6.46,5.87l-1.32.56C409.55,72.65,413.79,68,415.5,67Zm-62.85,29.6h-.6c-.65-.19-.89-.34-1-1.83v-.55c0-2.16,2.08-6,5.72-10.69l1.92,2.19a27.73,27.73,0,0,0,4.5,3.43C359,93.8,355.14,96.57,352.65,96.57ZM374.72,70c-.34,2.51-2.84,7.37-6.3,12.28-.84-.57-1.64-1.14-2.42-1.78a23.94,23.94,0,0,1-3.16-4c6.64-6.81,10.33-9.65,11.37-10l.11.06a4.9,4.9,0,0,1,.57,2.39ZM77.85,53.59c3.18-6.91,6.78-14.74,6.78-22.21A18.24,18.24,0,0,0,78.25,16.9C71.93,11.09,62.74,8,51.69,8c-13,0-27.94,4.4-38,11.2C5.09,24.92.92,32,.92,40.76c0,6.13,2,12.49,3.9,18.64A96,96,0,0,1,8.29,72.71a83.57,83.57,0,0,1,.54,10.54c0,8.59-.84,19.85-2.68,24.26-1,2.31-1.92,4.59-2.86,7q-.82,2.16-1.74,4.41l-.2.44A11.49,11.49,0,0,0,0,124.08a9.83,9.83,0,0,0,.4,2.24l0,.12c.72,1.78,2.28,4.19,4.35,5.11l.39.17.39-.18c2.56-1.2,2.89-2,3.14-3.94A16.06,16.06,0,0,1,9,125.72c.66-3.47,7.41-21.13,10.18-26.73,22.26-3.54,47.16-25.61,58.53-45.15Zm-21,13.71-1.31,1.54c-4,4.53-26.23,20.83-34.48,24.59,1.94-5,5.64-13,9.52-21.51C38.44,54.85,47.29,35.51,47.29,30.1v-.62L46.76,29c-2.26-1.91-3.1-2.62-6.65-2.62h-.49l-.28.39c-1.61,2.31-5,12-8.3,21.41C29,54.09,27,59.65,26,61.94c-3.49,8.72-6.61,15.91-8.55,19.76,0-.54.05-1.07.05-1.58,0-7.29-2.11-13.37-4.15-19.25-2-5.72-3.86-11.12-3.94-17.53,0-10.15,2.48-12.58,8.13-17.13,7.28-6.16,24.52-11.36,37.65-11.36,6.72,0,15.48,1.29,19.07,7.47a16.84,16.84,0,0,1,2.43,9.06C76.69,43.92,64.78,58,56.89,67.3Zm122.25,3v-.12c0-5.62-4-9.39-10-9.39a10.88,10.88,0,0,0-3.49.38c-6.53,1.35-18.75,8-25.06,12.16,2.74-3.63,6.86-12.44,7.58-16.22l0-1.46c0-3-1.45-4.34-4.65-6.11a3.87,3.87,0,0,0-2.17-.71c-2,0-3.5,1.94-3.5,4.61,0,1.9-2.27,9.83-6.67,16.61l-1.11,1.76c-1.26,2-3.07,4.85-5.18,8.28l-1.29,1.19c-5.52,5.35-10.74,10.4-14.61,10.4a4.18,4.18,0,0,1-2.88-1.24,11.47,11.47,0,0,1-.6-3.89c0-5.91,4.74-11.52,8.55-16,3-3.59,5.42-6.43,5.42-9,0-2.11-1.41-3.6-4.38-4.59l-.73-.18-.23,0a1.77,1.77,0,0,0-1.06.45l-.23.16a1.89,1.89,0,0,0-.78.53,83.42,83.42,0,0,0-8.88,7.65c-1.66-5.09-5.09-6.21-7.81-6.21-11.28,0-30.17,20.16-30.17,32.19a8.2,8.2,0,0,0,4.56,7.64,7.34,7.34,0,0,0,3.54.84c2.27,0,5-1,8.74-3.26a52.52,52.52,0,0,0,7.23-5.3,37.5,37.5,0,0,1,6-4.34c.06.22.12.45.17.66.85,3.44,2.85,11.5,11.92,11.5a17.84,17.84,0,0,0,5.22-.77,12.28,12.28,0,0,0,2-.76c-10,18.11-15.12,31.11-15.12,38.67a10.24,10.24,0,0,0,1.22,5.24l.11.19.19.13a6.84,6.84,0,0,0,3.46,1.26c1,0,3.45-.5,3.5-5,11.1-34.38,20.41-44.11,25.41-49.34l.42-.43c1.41,4,5.34,9.06,7,10a15.81,15.81,0,0,0,7.84,1.79,18.05,18.05,0,0,0,8.14-1.75l.84-.42c1.1-.53,2.59-1.25,3.77-2,6.47-2.73,16-15.31,17.41-23Zm-103,18.45c2.22-7.51,10.49-19.48,18.54-19.48a7.58,7.58,0,0,1,4.36,1.27C93.55,77.25,83.48,85.72,76.18,88.76Zm90.16-12.71a33.36,33.36,0,0,1-14.25,14.62,10.4,10.4,0,0,1-4.4,1c-4.22,0-8.21-3-11.06-5.61,4.17-3,22.91-15.51,29.45-15.51,1.25,0,1.46.39,1.46,1.28A11.16,11.16,0,0,1,166.34,76.05Zm72.93.38c-1.06,0-2.64.83-6.9,4.86-5.52,5.35-10.74,10.4-14.62,10.4a4.17,4.17,0,0,1-2.87-1.24,11.27,11.27,0,0,1-.61-3.89c0-5.91,4.74-11.52,8.55-16,3-3.59,5.43-6.43,5.43-9,0-2.11-1.41-3.6-4.38-4.59l-.74-.18-.23,0a1.77,1.77,0,0,0-1.05.45l-.23.16a1.93,1.93,0,0,0-.79.53A83.33,83.33,0,0,0,212,65.54c-1.66-5.09-5.1-6.21-7.82-6.21C192.86,59.33,174,79.49,174,91.52a8.2,8.2,0,0,0,4.56,7.64,7.4,7.4,0,0,0,3.55.84c2.26,0,5-1,8.74-3.26a52.4,52.4,0,0,0,7.22-5.3,38,38,0,0,1,6-4.34c.05.22.11.45.16.66.86,3.44,2.86,11.5,11.93,11.5a17.89,17.89,0,0,0,5.22-.77c6.25-1.76,13.41-10.15,16.28-14.28,1.52-1.86,3.16-4.56,3.16-6.11A1.55,1.55,0,0,0,239.27,76.43Zm-54.4,12.33c2.22-7.51,10.49-19.48,18.54-19.48a7.61,7.61,0,0,1,4.36,1.27C202.24,77.25,192.17,85.72,184.87,88.76Z"/></g></g></svg>