<svg xmlns="http://www.w3.org/2000/svg" viewBox="0 0 246.37 340.37"><defs><style>.cls-1{fill:#001728;}.cls-2{fill:#335cb1;}</style></defs><title>LOGO-PapaHoe-FullVersion-Positivo</title><g id="Layer_2" data-name="Layer 2"><g id="Layer_1-2" data-name="Layer 1"><path class="cls-1" d="M181.78,324.62h0c.23-6.76,8.76-32.49,11.57-40.94.41-1.23.71-2.14.86-2.62,1.91-6.24,3.46-11.09,3.87-12.12a20.17,20.17,0,0,0,.74-3.37c0-1.84-1.65-4-3-4h-.27l-.08,0c-1.24.33-1.28.46-3.42,7.51l-.37,1.22c-2.54,8.59-5.43,18-8.36,27.16-3.74.94-8.4.92-12.06.79L165,298h-2.41a3.56,3.56,0,0,1-1.26-.19c-.07,0-.14-.08-.13-.36a12.12,12.12,0,0,1,.85-2.75c.48-1.27,1.13-3,1.84-5.31.93-2.95,2.07-6,3.16-8.92.91-2.42,1.85-4.92,2.67-7.37,1-2.87,2.08-5.87,3.25-8.93l.06-.14a1,1,0,0,0,.29-.67,4.06,4.06,0,0,0-3.74-3.37,1.75,1.75,0,0,0-1.87,1.55c-.37,1.42-1.4,5.28-3.09,10.48l-6,17.4c-1.39,4.07-2.44,6.79-2.8,7.54-2.08-.08-4.18-.19-6-.31l-4.45-.26c-2.48-.09-5.14-.09-6,0a6.06,6.06,0,0,0-2.34,1.08,2.94,2.94,0,0,0-.93,2.15c-.06,1.76,1.18,3.91,3.7,6.38,2.8,2.62,4.38,17.27,4.08,25.87a17.77,17.77,0,0,1-.55,4.6,7.4,7.4,0,0,0-.38,1.65,1.75,1.75,0,0,0,.85,1.46l.06,0a2.53,2.53,0,0,0,1.81.72l.92-.07.1,0c1.16-.34,1.57-.82,1.85-2.2,1.29-11.49,7.69-28.66,10.52-35.84,2.8-.17,9.16.05,11.93.15l1.35.15a53.93,53.93,0,0,0,8.91-.59l.64-.08-3.1,10.29c-.54,2-2.28,9.8-2.36,12.17l0,.48,0,.06c.27,1.15,2.89,4.43,4,4.47h.07a1.61,1.61,0,0,0,1.52-1.77,7.57,7.57,0,0,0-.26-1.9A3.67,3.67,0,0,1,181.78,324.62Zm-33.87-5.36c-.82-10.12-1.82-11.52-3.88-14.37-.6-.84-1.29-1.79-2.09-3.14l0-.13a1.12,1.12,0,0,1-.09-.46c0-.08.18-.49,3.34-.38l2.19.07c1.69.2,3.7.34,6,.42a2.81,2.81,0,0,1,.6.08C152.83,305.19,149.46,315,147.91,319.26Zm94-17.06a1.54,1.54,0,0,0-1,.22c-2.23,1.57-13.93,8.69-18.49,8.69-1.24,0-1.37-.51-1.44-.78a3.58,3.58,0,0,1-.17-.63,2.89,2.89,0,0,1,1.58-2.35c3.9-1.43,11.16-4.09,11.16-9.69a4.71,4.71,0,0,0-.1-1.18c-.34-2.62-2.36-5.1-4.15-5.1-2.73,0-7.66,4.47-10.54,9.53-.18.25-.36.52-.53.79a5.56,5.56,0,0,0-2.26,1.67l-.28.3a11.58,11.58,0,0,1-2.92,2.24,9,9,0,0,1-4.18,1l-.8,0c2-3,3.92-7.67,3.92-11.37,0-3.85-2-5-3.67-5.26h-.39c-4.42,0-16.23,12.91-18,16.24a9.49,9.49,0,0,0-1.38,4.5c0,1.79.73,4.31,4.22,6.12a5.27,5.27,0,0,0,2.56.56c4.62,0,8.68-5.1,10.06-7.05h0c.78.08,1.52.17,2.17.17a13,13,0,0,0,8.72-3.33q0,.35,0,.69a7.72,7.72,0,0,0,1.29,4.41,5.32,5.32,0,0,0,4.89,2.37c7.76,0,20.9-9.41,21.29-10.19a2.63,2.63,0,0,0,.36-1.14C243.73,302.76,243,302.2,241.9,302.2Zm-13.37-5.35a7,7,0,0,1-.37,1.26c-.54,1.73-.58,1.84-3.55,3.23l-.73.3A30.21,30.21,0,0,1,228.53,296.85ZM194,313.13h-.33c-.36-.11-.49-.19-.57-1v-.3c0-1.19,1.14-3.31,3.14-5.88l1.06,1.2a14.68,14.68,0,0,0,2.47,1.89C197.46,311.61,195.33,313.13,194,313.13Zm12.13-14.63c-.18,1.38-1.56,4.05-3.46,6.75-.46-.31-.9-.62-1.33-1a13.08,13.08,0,0,1-1.74-2.2c3.65-3.74,5.68-5.31,6.25-5.51l.07,0a2.74,2.74,0,0,1,.31,1.31Zm-163.27-9c1.74-3.8,3.72-8.1,3.72-12.21a10.07,10.07,0,0,0-3.5-8c-3.48-3.19-8.53-4.89-14.61-4.89a40,40,0,0,0-20.92,6.16c-4.71,3.14-7,7-7,11.86,0,3.37,1.09,6.86,2.14,10.25A53,53,0,0,1,4.56,300a45.13,45.13,0,0,1,.3,5.79c0,4.73-.47,10.92-1.48,13.35-.57,1.27-1,2.52-1.57,3.85-.31.79-.62,1.6-1,2.42l-.11.24a6.36,6.36,0,0,0-.74,2.6,5.43,5.43,0,0,0,.22,1.23l0,.07a5.34,5.34,0,0,0,2.39,2.81l.22.09.21-.1c1.4-.66,1.59-1.12,1.72-2.17,0-.28.08-.6.18-1a123.06,123.06,0,0,1,5.6-14.7c12.24-1.95,25.94-14.08,32.19-24.83ZM31.29,297l-.72.85c-2.21,2.49-14.43,11.46-19,13.52,1.07-2.72,3.11-7.16,5.24-11.83,4.3-9.39,9.17-20,9.17-23v-.34l-.29-.25a4.39,4.39,0,0,0-3.66-1.44h-.27l-.15.22c-.89,1.27-2.76,6.61-4.57,11.77-1.13,3.24-2.2,6.29-2.77,7.55-1.92,4.8-3.64,8.75-4.7,10.87,0-.29,0-.58,0-.87,0-4-1.16-7.35-2.28-10.59s-2.12-6.11-2.17-9.64c0-5.58,1.37-6.91,4.47-9.42,4-3.39,13.49-6.25,20.71-6.25,3.7,0,8.52.71,10.49,4.11a9.24,9.24,0,0,1,1.34,5C42.18,284.18,35.63,291.91,31.29,297Zm67.24,1.66v-.07c0-3.09-2.2-5.16-5.47-5.16a5.93,5.93,0,0,0-1.92.21c-3.59.74-10.31,4.4-13.78,6.68a31.53,31.53,0,0,0,4.17-8.92v-.8c0-1.66-.8-2.39-2.56-3.36a2.13,2.13,0,0,0-1.19-.39c-1.12,0-1.93,1.07-1.93,2.54,0,1-1.25,5.4-3.67,9.13l-.61,1c-.69,1.09-1.68,2.66-2.85,4.55-.22.2-.45.41-.7.66-3,2.94-5.91,5.72-8,5.72a2.34,2.34,0,0,1-1.58-.68,6.26,6.26,0,0,1-.34-2.15c0-3.25,2.61-6.33,4.71-8.82,1.66-2,3-3.53,3-4.93,0-1.16-.78-2-2.41-2.52l-.41-.1-.12,0a.92.92,0,0,0-.58.25l-.13.08a1.25,1.25,0,0,0-.43.29,47.9,47.9,0,0,0-4.88,4.21c-.91-2.79-2.8-3.41-4.3-3.41-6.2,0-16.59,11.08-16.59,17.7a4.51,4.51,0,0,0,2.51,4.21,4.07,4.07,0,0,0,1.94.45,10,10,0,0,0,4.81-1.78,29,29,0,0,0,4-2.92,20.44,20.44,0,0,1,3.28-2.39c0,.12.06.25.09.36.47,1.9,1.57,6.33,6.56,6.33a10,10,0,0,0,2.87-.42,7.54,7.54,0,0,0,1.09-.42c-5.52,10-8.32,17.11-8.32,21.27a5.61,5.61,0,0,0,.67,2.88l.06.1.1.07a3.71,3.71,0,0,0,1.91.7c.57,0,1.9-.28,1.93-2.76,6.1-18.91,11.22-24.26,14-27.14l.23-.24c.78,2.18,2.94,5,3.83,5.48a8.69,8.69,0,0,0,4.31,1,9.9,9.9,0,0,0,4.48-1l.47-.23a22,22,0,0,0,2.07-1.09c3.56-1.5,8.82-8.42,9.57-12.62ZM41.9,308.83c1.22-4.12,5.77-10.71,10.2-10.71a4.19,4.19,0,0,1,2.4.7C51.45,302.51,45.91,307.16,41.9,308.83Zm49.58-7a18.28,18.28,0,0,1-7.83,8.05,5.74,5.74,0,0,1-2.42.56c-2.32,0-4.52-1.66-6.08-3.09,2.29-1.63,12.6-8.53,16.19-8.53.69,0,.8.22.8.7A6,6,0,0,1,91.48,301.84Zm40.12.21c-.59,0-1.45.46-3.8,2.68-3,2.94-5.9,5.72-8,5.72a2.36,2.36,0,0,1-1.58-.68,6.56,6.56,0,0,1-.33-2.15c0-3.25,2.61-6.33,4.7-8.82,1.67-2,3-3.53,3-4.93,0-1.16-.78-2-2.41-2.52l-.41-.1-.12,0a.94.94,0,0,0-.58.24l-.13.09a1.08,1.08,0,0,0-.43.29,45.84,45.84,0,0,0-4.88,4.21c-.92-2.79-2.81-3.41-4.3-3.41-6.21,0-16.6,11.08-16.6,17.7a4.53,4.53,0,0,0,2.51,4.21,4.11,4.11,0,0,0,2,.45,10,10,0,0,0,4.81-1.78,29.53,29.53,0,0,0,4-2.92,21.36,21.36,0,0,1,3.28-2.39c0,.12.07.25.09.36.47,1.9,1.58,6.33,6.56,6.33a10,10,0,0,0,2.87-.42c3.44-1,7.38-5.59,9-7.86a7.19,7.19,0,0,0,1.74-3.36A.86.86,0,0,0,131.6,302.05Zm-29.92,6.78c1.22-4.12,5.77-10.71,10.19-10.71a4.17,4.17,0,0,1,2.4.7C111.23,302.51,105.69,307.16,101.68,308.83Z"/><path class="cls-1" d="M243.07,102.89c-15.41-12.74-33-22.12-50.92-30.76-18.33-8.83-37.6-16.32-57.9-18.86-24.63-3.08-51.94.49-75.64,7.52-10.56,3.13-21,7.25-30.9,13.65C16.56,81.68,5.62,93.06,2.88,106.51c-2.82,13.81,3.65,29,13.11,38.86,10.84,11.3,26.06,17.58,41.48,20.34s31.19,2.29,46.84,1.87c11.48-.3,23-.57,34.33-2.37,22.83-3.63,44.19-13.32,65.22-22.91a197.27,197.27,0,0,0,21.7-11c6.7-4.11,11.51-9.61,17.48-14.44a9,9,0,0,0,0-14Zm-106.8,34.36a32.56,32.56,0,0,1-25.4,5.05,24.16,24.16,0,0,1-11.24-5.69,78,78,0,0,1-8.11-8.77,47.69,47.69,0,0,1-6.29-10.14,30.57,30.57,0,0,1-2.89-12.37c-.11-8.88,4.93-17.49,12.16-22.69a33.05,33.05,0,0,1,25-5.28A31.41,31.41,0,0,1,139.94,90.8a32.17,32.17,0,0,1,9.22,23.44A30.61,30.61,0,0,1,136.27,137.25ZM83.52,151.09a131.17,131.17,0,0,1-30.39-5.43c-9.66-3-18.71-7.54-24.27-14.2A26.93,26.93,0,0,1,23.29,120a30.49,30.49,0,0,1-.47-13.12C24.6,99.36,30.35,92.61,38,87.6s16.79-8.39,26.08-10.91a142.69,142.69,0,0,1,14.16-3c3-.57,6-1.05,9-1.39-.14.11-.3.22-.44.34a52.51,52.51,0,0,0-12,13.72A60,60,0,0,0,68,103.44a49.49,49.49,0,0,0-.78,19.06,41.79,41.79,0,0,0,7.63,18.08,37,37,0,0,0,12.71,10.75C86.23,151.26,84.88,151.18,83.52,151.09ZM214.45,110.2a9,9,0,0,1-1.86,3.68,32.9,32.9,0,0,1-7.42,7.32c-5.45,3.92-11.68,6.14-18.12,9.07-14.38,6.56-28.76,12.19-43.63,16a52.51,52.51,0,0,0,18.22-48.92,47.41,47.41,0,0,0-7.07-17.74c-.59-.72-1.21-1.41-1.84-2.09a235.58,235.58,0,0,1,25.46,8.86c6.34,2.6,12.52,5.66,18.61,8.89,5.13,2.73,11.53,5.31,15.74,9.64A6.39,6.39,0,0,1,214.45,110.2ZM6.76,41.84C3.15,38.12,3.57,33.66,6.87,30c3.42-3.85,7-4.29,11.68-1.23,6.31,4.1,12.54,8.32,18.42,13,4.16,3.33,4.3,7.06.21,10.59-2.83,2.44-5.94,4.56-9,6.92C19.71,55,13.16,48.45,6.76,41.84Zm83.84-34A4.72,4.72,0,0,1,91.79,3.5c4-4,13.67-2.95,16.46,2a45.35,45.35,0,0,1,4.85,12.58,18.08,18.08,0,0,1,.84,8.86c-1,6.1-7.26,11.11-13.49,11-3.23-.08-5.46-2.19-6.27-6.48-1-5.07-1.62-10.18-2.4-15.28C91.36,13.39,91,10.61,90.6,7.83ZM45.38,18.91c-1.57-3.79-.82-6.84,2.15-9.29,2.8-2.31,6.24-2.39,9.62-.4,2.86,1.69,4.28,4.54,6,7.12a56.32,56.32,0,0,1,8.16,17.37c.67,2.61,0,4.34-2.62,5.07S63.51,40,61,40.7c-2,.55-2.84-.92-3.84-2.05C53.2,34.29,50.46,29.18,47.84,24,47,22.3,46.1,20.64,45.38,18.91Zm91.4,12.64A146.36,146.36,0,0,0,138,8.62c-.14-3.7,1.77-6.57,5.57-8.14a8.34,8.34,0,0,1,11,6.67c2,11-1.5,20.35-9.16,28.24-1.72,1.76-3.74,3.58-6.57,2.3S136.51,33.82,136.78,31.55Zm34.34,9.26c-.94-3.4-1.28-6.53.35-9.44,2.13-3.82,4.41-7.57,6.77-11.26,1.32-2.07,3.17-3.53,5.89-2.87,3,.71,3.31,3.27,3.31,5.56,0,6.44-.44,12.82-3.93,18.58-1.36,2.25-2.9,4.55-5.62,4.32C174.81,45.43,172.77,43,171.12,40.81ZM200.74,56.6c.46-6.16,3.88-11.38,6-17,1.09-2.81,5.37-2.46,6.73.42,2.27,4.78,2.41,9.7-.26,14.38C210.85,58.6,206.8,59.27,200.74,56.6ZM226,68.75c-1.44-1.48-2.46-3.33-1.47-5.49a18.78,18.78,0,0,1,4.16-6.46c1.39-1.38,3-3,5.49-1.84s3.21,3.21,3.15,5.76c-.09,3.69-3.32,8.12-6.72,9.38C228.69,70.84,227.23,70,226,68.75Zm-.31,95.64c6.52,10.29,9.71,22.5,6.84,34.2-2.46,10-11.45,20.16-24.56,15.69-6.13-2.08-9.65-12.75-13.82-13.8-6.76-1.69-14.13,7.87-16.62,11.78a42.78,42.78,0,0,1-5,7.09c-8.12,8.37-19.16,9.32-26.9.55-4.88-5.53-7.89-13.06-17.56-12.07-10.21,1-10.09,11-16.89,15.52-10.47,7-21.69-1-28.07-8.23-6.87-7.8-15-17.23-24.59-6.68-3.39,3.71-4.57,9.62-10.43,11.36-17,5-19.18-22-30-26.28-1.83-.72-2.35-9.29-.27-9.44C32.39,183,29.21,202.63,43.67,202c11-.5,10.75-15.38,23.14-14.92,14.26.53,17.85,17.84,32.29,19.4C113,208,112.2,193.34,122.34,189c9.71-4.15,16.62.89,22,7.47,14.85,18.13,24.44,3.06,34.08-10.74,4.83-6.92,10.75-10.81,18.4-4.7,5.4,4.31,6.67,12.39,15.5,12.76,12.87.54,10.84-8.75,8.69-16.38C220.48,175.53,222,158.51,225.73,164.39Z"/><path class="cls-2" d="M128.75,99.72c5.37,5.9,5,19-5.75,22.21-7.35,2.2-13.32,1.22-18-3.61-4.23-3.71-5-8.22-2.9-13.72A15.81,15.81,0,0,1,128.75,99.72Z"/></g></g></svg>