<svg xmlns="http://www.w3.org/2000/svg" viewBox="0 0 598.73 159.91"><defs><style>.cls-1{fill:#8cd8d5;}</style></defs><title>PapaHoe-ELEMENTS-Fondito-VerdeAcapulco</title><g id="Layer_2" data-name="Layer 2"><g id="Layer_1-2" data-name="Layer 1"><path class="cls-1" d="M542.22,148.4c-67.7,13.54-134.78,5.44-203.22,4.52q-108.24-1.46-216.36,5.85C83.26,161.44,36.72,162,13,130.44-10.57,99.26,2.22,54.86,17.65,19c2.18-5.07,4.58-10.36,9-13.66,5-3.69,11.5-4.22,17.67-4.53A644.23,644.23,0,0,1,173.59,7.42c37.66,5.76,75.76,22.41,113.66,22.84,49.64.55,99.46.4,148.82,6.37,21.95,2.65,44-1.77,66-1.55,24.39.25,90,4.36,96.12,34.4,1.88,9.17-1.56,18.53-5.31,27.11A331.49,331.49,0,0,1,577,128.17c-2.71,4.74-5.66,9.55-10.11,12.7-4.14,2.93-9.2,4.18-14.15,5.29Q547.51,147.33,542.22,148.4Z"/></g></g></svg>