<svg xmlns="http://www.w3.org/2000/svg" viewBox="0 0 229.89 104.64"><defs><style>.cls-1{fill:#335cb1;}</style></defs><title>PapaHoe-ELEMENTS-Tab</title><g id="Layer_2" data-name="Layer 2"><g id="Layer_1-2" data-name="Layer 1"><path class="cls-1" d="M5.37,97.05C.47,95-1,90.68.61,85.87c1.63-5,4.77-6.87,10.45-5.93,7.59,1.25,15.16,2.67,22.6,4.67,5.27,1.42,6.93,4.86,4.53,9.85-1.65,3.45-3.7,6.7-5.64,10.18C22.9,104.09,14.07,100.63,5.37,97.05Z"/><path class="cls-1" d="M70.05,30.86a4.84,4.84,0,0,1-.65-4.55C71.55,20.9,81,18,85.66,21.48a46.47,46.47,0,0,1,9.69,9.8,18.47,18.47,0,0,1,4.41,8c1.55,6.13-2.25,13.39-8.15,15.79-3.07,1.25-6,.19-8.53-3.51-3-4.35-5.7-8.88-8.51-13.34C73,35.76,71.52,33.32,70.05,30.86Z"/><path class="cls-1" d="M32.19,59.75c-3-2.91-3.56-6.07-1.78-9.59,1.68-3.31,4.87-4.79,8.85-4.31,3.38.41,5.87,2.5,8.55,4.22A57.55,57.55,0,0,1,62.57,63c1.69,2.17,1.76,4.07-.38,5.82s-4.37,3.26-6.48,5c-1.66,1.34-3,.31-4.44-.34C45.82,71,41.15,67.3,36.58,63.51,35.11,62.26,33.57,61.08,32.19,59.75Z"/><path class="cls-1" d="M123.05,34.19a149.14,149.14,0,0,0-8.27-22c-1.65-3.41-1-6.89,1.88-9.91A8.53,8.53,0,0,1,129.74,4c6.35,9.55,6.92,19.69,3,30.22-.89,2.36-2,4.9-5.21,4.85S123.73,36.43,123.05,34.19Z"/><path class="cls-1" d="M159,28.83c-2.28-2.81-3.88-5.61-3.54-9,.44-4.46,1-8.9,1.74-13.33.39-2.48,1.53-4.61,4.34-5.1C164.64.86,166,3.11,167,5.26c2.65,6,4.83,12.2,3.91,19-.35,2.67-.86,5.45-3.5,6.34C164.38,31.64,161.47,30.2,159,28.83Z"/><path class="cls-1" d="M193.27,31.51c-2.1-6-1-12.27-1.29-18.41-.14-3.07,4-4.5,6.48-2.36,4.08,3.56,6.22,8.11,5.63,13.59C203.57,29.24,200,31.52,193.27,31.51Z"/><path class="cls-1" d="M222,32.54c-2-.8-3.68-2.11-3.63-4.55a19.05,19.05,0,0,1,1.26-7.75c.74-1.86,1.58-4,4.39-4s4.32,1.7,5.31,4.11c1.43,3.5.21,9-2.46,11.55C225.29,33.41,223.57,33.2,222,32.54Z"/></g></g></svg>