<svg xmlns="http://www.w3.org/2000/svg" viewBox="0 0 128.08 128.08"><defs><style>.cls-1{fill:#f4f5ec;}.cls-2{fill:#001728;}</style></defs><title>PapaHoe-ICON-Arena</title><g id="Layer_2" data-name="Layer 2"><g id="Layer_1-2" data-name="Layer 1"><path class="cls-1" d="M114.17,23.92c22.07,26.37,20.45,84.83-23.6,99.17-30.2,9.84-54.73,5.47-74-16.11C-.83,90.41-4,70.28,4.63,45.73,22.29-4.38,80.93-15.79,114.17,23.92Z"/><path class="cls-2" d="M103.45,60.83a76.47,76.47,0,0,0-15.8-9.54C82,48.55,76,46.23,69.69,45.44a59.71,59.71,0,0,0-23.46,2.33A36.17,36.17,0,0,0,36.65,52c-3.46,2.25-6.86,5.78-7.71,10S30.08,71,33,74c3.36,3.5,8.09,5.45,12.87,6.31s9.67.71,14.53.58a80.64,80.64,0,0,0,10.65-.74C78.14,79,84.76,76,91.28,73.06A62.67,62.67,0,0,0,98,69.64c2.07-1.27,3.57-3,5.42-4.48a2.4,2.4,0,0,0,.39-.39A2.8,2.8,0,0,0,103.45,60.83ZM70.32,71.49a10.08,10.08,0,0,1-7.88,1.57A7.54,7.54,0,0,1,59,71.29a23.58,23.58,0,0,1-2.51-2.72,14.53,14.53,0,0,1-1.95-3.14,9.46,9.46,0,0,1-.9-3.84,8.85,8.85,0,0,1,3.77-7,10.27,10.27,0,0,1,7.76-1.64,9.79,9.79,0,0,1,6.34,4.17,10,10,0,0,1,2.86,7.27A9.5,9.5,0,0,1,70.32,71.49ZM54,75.78a40.53,40.53,0,0,1-9.43-1.68c-3-.93-5.8-2.34-7.53-4.4a8.49,8.49,0,0,1-1.73-3.55,9.59,9.59,0,0,1-.14-4.07,10.43,10.43,0,0,1,4.72-6,29.38,29.38,0,0,1,8.09-3.38,44,44,0,0,1,4.39-.94c.93-.18,1.87-.33,2.79-.44l-.14.11a16.27,16.27,0,0,0-3.72,4.25A19,19,0,0,0,49.15,61a15.45,15.45,0,0,0-.24,5.92,13,13,0,0,0,2.37,5.61,11.5,11.5,0,0,0,3.94,3.33ZM94.57,63.1A2.75,2.75,0,0,1,94,64.24a10.07,10.07,0,0,1-2.3,2.27,31.74,31.74,0,0,1-5.62,2.82,81.62,81.62,0,0,1-13.53,5,16.3,16.3,0,0,0,5.65-15.17A14.71,14.71,0,0,0,76,53.62c-.19-.23-.38-.44-.58-.65a71.78,71.78,0,0,1,7.9,2.75,62.15,62.15,0,0,1,5.77,2.75c1.6.85,3.58,1.65,4.89,3A2,2,0,0,1,94.57,63.1ZM30.15,41.9a2.52,2.52,0,0,1,0-3.69c1.06-1.19,2.16-1.33,3.62-.38,2,1.27,3.89,2.58,5.72,4,1.29,1,1.33,2.19.06,3.29-.88.76-1.84,1.41-2.8,2.14A25.3,25.3,0,0,1,30.15,41.9Zm26-10.55A1.48,1.48,0,0,1,56.52,30c1.26-1.25,4.24-.92,5.11.63a14,14,0,0,1,1.5,3.9,5.53,5.53,0,0,1,.26,2.74,4.29,4.29,0,0,1-4.18,3.4c-1,0-1.69-.67-1.94-2-.3-1.57-.51-3.15-.75-4.74C56.39,33.07,56.26,32.21,56.15,31.35Zm-14,3.43a2.26,2.26,0,0,1,.66-2.88,2.48,2.48,0,0,1,3-.12A6.19,6.19,0,0,1,47.64,34a17.24,17.24,0,0,1,2.53,5.38c.21.82,0,1.35-.81,1.58s-1.61.37-2.4.59c-.63.17-.88-.28-1.2-.63a20.54,20.54,0,0,1-2.87-4.55C42.63,35.84,42.35,35.32,42.13,34.78ZM70.48,38.7a44.41,44.41,0,0,0,.36-7.11,2.52,2.52,0,0,1,1.73-2.52A2.59,2.59,0,0,1,76,31.14a9.59,9.59,0,0,1-2.85,8.75c-.53.55-1.16,1.12-2,.72S70.39,39.41,70.48,38.7Zm10.65,2.88a3.71,3.71,0,0,1,.11-2.93c.66-1.19,1.37-2.35,2.1-3.49a1.61,1.61,0,0,1,1.82-.89c.92.22,1,1,1,1.72A10.65,10.65,0,0,1,85,41.76c-.42.69-.9,1.41-1.74,1.33A3.15,3.15,0,0,1,81.13,41.58Zm9.19,4.9c.14-1.92,1.2-3.53,1.87-5.27a1.16,1.16,0,0,1,2.09.13,4.62,4.62,0,0,1-.08,4.46C93.45,47.1,92.2,47.3,90.32,46.48Zm7.84,3.77a1.48,1.48,0,0,1-.45-1.71,5.66,5.66,0,0,1,1.29-2c.43-.43.93-.93,1.7-.57a1.7,1.7,0,0,1,1,1.78,3.59,3.59,0,0,1-2.08,2.91A1.27,1.27,0,0,1,98.16,50.25ZM68,59.85c1.66,1.83,1.54,5.89-1.79,6.89-2.28.68-4.13.38-5.59-1.12a3.48,3.48,0,0,1-.9-4.25A4.91,4.91,0,0,1,68,59.85Zm30.08,18.7a17.72,17.72,0,0,1,2.12,12.15c-.76,3.57-3.55,7.16-7.62,5.57-1.9-.74-3-4.53-4.28-4.9-2.1-.6-4.39,2.79-5.16,4.18a15.13,15.13,0,0,1-1.56,2.52c-2.52,3-5.94,3.31-8.34.2-1.51-2-2.45-4.64-5.45-4.29-3.16.37-3.13,3.89-5.24,5.51-3.25,2.49-6.72-.35-8.7-2.92-2.13-2.77-4.64-6.12-7.63-2.37-1.05,1.31-1.42,3.41-3.24,4C37.71,100,37,90.4,33.67,88.9c-.57-.26-.73-3.3-.08-3.36,4.51-.37,3.52,6.59,8,6.36,3.4-.18,3.33-5.46,7.17-5.3,4.43.19,5.54,6.33,10,6.89,4.32.53,4.06-4.66,7.21-6.2s5.15.32,6.82,2.65c4.61,6.45,7.58,1.09,10.57-3.81,1.5-2.46,3.34-3.84,5.71-1.67,1.68,1.53,2.07,4.4,4.81,4.53,4,.19,3.36-3.1,2.7-5.81C96.44,82.51,96.91,76.46,98.07,78.55Z"/></g></g></svg>