<svg xmlns="http://www.w3.org/2000/svg" viewBox="0 0 578.57 409.79"><defs><style>.cls-1{fill:#335cb1;}</style></defs><title>PapaHoe-ELEMENTS-LasHojas-AzulMarino</title><g id="Layer_2" data-name="Layer 2"><g id="Layer_1-2" data-name="Layer 1"><path class="cls-1" d="M573.33,169.3a73.88,73.88,0,0,0-12.39-22.84c-1.59-2-3.36-4-5.24-5.94a71.37,71.37,0,0,0-14.16-11.73c-10.61-6.37-23.09-7.19-34.88-3.94-10.19,2.82-19.71,8.13-29.41,12.57-3.27,1.5-6.16,3.81-9.91,6.18,3.08-6.86,6-12.68,8.34-18.72a182.93,182.93,0,0,0,6.31-19c7.76-29.13-4-45.71-31.85-52.21l-1.86-.37c-13-2.57-29.9-2.69-42.42,2.16a12.77,12.77,0,0,0-5.36,3.44c-2.53,3-2.43,7.62-.67,11.15s4.89,6.15,8.13,8.4c5.46,3.79,11.45,6.8,16.79,10.78s9.69,9.46,13.55,15,8.34,14.62,4.71,21a1.09,1.09,0,0,1-.42.48,1.13,1.13,0,0,1-.77,0c-6.16-1.35-11-5.4-15.89-9.12-11.29-8.6-22.72-17-36.33-21.63s-27.06-4.59-40.2,1.64c-8.5,4-8.89,8.82-1,14a85.31,85.31,0,0,0,11.67,6.14c15.18,6.85,30.56,13.28,45.56,20.5a46.69,46.69,0,0,1,13.43,10.4c1.72,1.87,2.27,6.61,1.09,8.84s-5.22,3.71-8,3.72a47.71,47.71,0,0,1-13.47-2.35c-14.84-4.42-29.45-9.69-44.42-13.57-13.42-3.48-27.22-4.6-40.77,0-11.12,3.79-19.84,10.64-25.29,21.19-2.41,4.65-1.23,8.61,3.45,11.15,2.17,1.16,4.5,2.46,6.87,2.72,16.48,1.8,33,3.06,49.49,5.1a153.4,153.4,0,0,1,24.49,5.31c2.22.65,4.82,4.33,4.89,6.7s-2.28,5.75-4.51,7a31.29,31.29,0,0,1-11.92,3.69c-14.62,1.53-29.3,2.5-43.94,3.81s-29.3,3.52-42.56,10.74c-11.82,6.45-18.24,16.59-19.8,29.81-1.07,9.08,3.14,13.87,12.17,12.54,8.25-1.21,16.37-3.72,24.34-6.31,11.1-3.6,21.9-8.17,33-11.62a69,69,0,0,1,17.48-2.6c4.41-.18,9,2,9.36,6.77a11.85,11.85,0,0,1-4.23,9,112.3,112.3,0,0,1-18.91,10.69c-14.26,6.55-29,12.07-43,19.12a91.46,91.46,0,0,0-21.79,15.49c-7.62,7.31-7.84,15.68-2.15,24.52,7.93,12.31,17.39,23.29,29.8,31.36C308.57,372,330,374.83,339.63,346a273.62,273.62,0,0,1,15.71-37c3.73-7.33,9.41-13.74,14.78-20.1,1.36-1.61,5.37-2.56,7.21-1.72s2.75,4.28,3,6.7a31.8,31.8,0,0,1-.75,9.65c-3,14.22-6.46,28.33-9.08,42.61a221.57,221.57,0,0,0-2.92,27.22c-.26,4.45,2.68,7.13,7.43,6.63,14.15-1.49,26.17-6.9,34.36-19.14,7.18-10.73,8.56-22.78,7.85-35.2-.77-13.36-2.24-26.68-2.77-40.05a48.52,48.52,0,0,1,2.34-15.69c.65-2.14,3.91-4.45,6.23-4.73,1.37-.17,4.2,3.24,4.67,5.42,1.64,7.64,2.62,15.42,3.72,23.17,2,13.82,3,27.81,5.95,41.41,2.77,12.95,9.35,14.81,20.4,7.34.78-.54,1.54-1.13,2.27-1.74,23.75-19.88,31.25-57.42,16.79-84.68-2.85-5.37-6.23-10.46-9.37-15.67,6.41,5.27,12.52,10.86,17.13,17.49,7.59,11,14.57,22.39,21.14,34,4.77,8.44,10.28,9.67,17.09,2.65A16.61,16.61,0,0,0,525,292c11.48-18.22,14.17-37.3,5.13-57.31-6.25-13.83-16.51-24.71-26.76-35.59-2.73-2.89-5.77-6-7-9.6-1-2.69-.14-7,1.58-9.27,1-1.33,6.09-1.25,8,.1a111.56,111.56,0,0,1,14.11,12.45c8.63,8.56,16.09,20.51,28.27,24.14a39,39,0,0,0,18.71.57c3.81-.76,7.85-2.23,9.89-5.54,1.54-2.51,1.66-5.61,1.65-8.55A107.63,107.63,0,0,0,573.33,169.3Zm-152.06,53c-5.69,7-11.85,13.6-18.19,20-3.64,3.67-12.66,16.41-18.88,12.29-1.88-1.25-2.56-3.79-2.22-6,1-6.79,6.51-13.33,9.81-19.16a162.82,162.82,0,0,1,12.93-19.89,248.91,248.91,0,0,1,17.91-20.09c6.06-6.25,11.76-13.69,19.46-17.92,1.52-.83,3.33-1.55,4.93-.91,1.79.73,2.57,2.83,2.88,4.74,1.66,10.11-4.27,13.73-9.45,21.07C434.26,205.16,428,213.93,421.27,222.27Z"/><path class="cls-1" d="M305.59,341.32c-8.2,15.84-18.43,28-30,38.79-8.72,8.17-18.44,15.36-28.23,22.26-3.53,2.49-8.46,3.59-12.89,4.06-5.5.57-9.39-3.81-8-9.14a51,51,0,0,1,6.8-15.54c12.72-18.53,29.2-33.19,48.65-44.4a43.28,43.28,0,0,1,13.29-5.06c3.25-.62,7.59-.13,10.09,1.71C306.8,335.07,305.6,339.77,305.59,341.32Z"/><path class="cls-1" d="M337.8,69.52A91.41,91.41,0,0,0,358,77c7.67,1.88,15.44,5.22,23.45,5a7.37,7.37,0,0,0,4.23-1.13,5.84,5.84,0,0,0,1.9-5.62c-1.11-7-7.08-13.55-11.59-18.6A124.08,124.08,0,0,0,357.09,40c-5.18-3.84-10.68-7.41-16.84-9.34-10.07-3.18-26.17-.77-27,12.35-.31,4.78,2,9.43,5.15,13C323.56,61.76,331,66,337.8,69.52Z"/><path class="cls-1" d="M287.28,186.76c1.71,1,4.79,2.77,7.71,4.74,2.59,1.75,3.28,4.09,0,5.54-5.15,2.24-10.38,4.56-15.82,5.8-11,2.51-22.15,3.74-33.36,1.66a30.73,30.73,0,0,1-9.06-3.22c-7.17-3.92-7.45-13.79-.23-17.61a33.65,33.65,0,0,1,13.19-3.46C262.12,179.38,274.1,182.2,287.28,186.76Z"/><path class="cls-1" d="M320.7,106.67c11.24,4.45,22,10.86,31.73,17.76,2.69,1.91,5.54,4.27,5.89,7.55a1.59,1.59,0,0,1-.22,1.19,1.92,1.92,0,0,1-1.06.53c-2.89.74-5.79,1.75-8.83,1.43-27.41-2.94-53.68-10-78.07-23.17a27.72,27.72,0,0,1-7.44-6.17c-4-4.54-2.51-9.32,3.39-10.06a48.75,48.75,0,0,1,16.44.45c10.8,2.42,21.88,5,32.4,8.4C316.86,105.22,318.79,105.92,320.7,106.67Z"/><path class="cls-1" d="M269.16,276.09a46.58,46.58,0,0,1-4.6,5.52c-16.48,14.58-34.83,26.06-55.88,32.79a45.24,45.24,0,0,1-12.38,1.85c-5.27.15-9.77-1.78-11.85-7.2-2-5.2,0-9.6,3.75-12.86a53.61,53.61,0,0,1,12.28-8.25c18.74-8.72,38.68-12.89,59.22-14.31,2.91-.2,5.88.44,8.82.69C268.73,274.91,268.94,275.5,269.16,276.09Z"/><path class="cls-1" d="M357.55,338.2c.4,4.49,1.15,9,1.13,13.47-.05,17.26-1.12,34.39-8.79,50.33-.74,1.53-1.49,3.5-2.81,4.22-3,1.64-6.82,4.2-9.43,3.42s-5.56-5.22-5.52-8c.09-7.73.43-15.88,2.94-23.07,4.25-12.18,10.12-23.81,15.61-35.52,1-2.16,3.48-3.63,5.28-5.42Z"/><path class="cls-1" d="M419.33,370c1.71-2.37,4.46-6.72,7.77-10.58,1.95-2.27,4.69-3.09,7.53-.51,11.07,10.05,10.74,35.82-.73,45.48a26.78,26.78,0,0,1-5.75,3.71c-6.48,3.06-11.29.84-13-6.2C412.67,391.58,415.48,381.82,419.33,370Z"/><path class="cls-1" d="M495.05,315.23c2.8-7.05,5.92-7.93,10.52-3.29,8.33,8.39,13.19,18.53,10.9,30.44-.89,4.64-4,9.47-7.49,12.86-5.75,5.63-11.26,3.89-13.83-3.85C491,339,492.19,326.6,495.05,315.23Z"/><path class="cls-1" d="M75.3,279A109.1,109.1,0,0,1,64,315.25,202.69,202.69,0,0,1,49.47,339c-1.89,2.76-5.17,4.89-8.26,6.42-3.84,1.9-7.84-.23-8.24-4.49a39.23,39.23,0,0,1,.75-13.11A113.92,113.92,0,0,1,57.07,282.5a33.51,33.51,0,0,1,8.28-7.26c2.2-1.32,5.48-2.14,7.79-1.48C74.49,274.15,74.88,277.88,75.3,279Z"/><path class="cls-1" d="M44.05,142.75c1.57.3,4.36.74,7.09,1.4,2.42.59,3.58,2.15,1.5,4.16A73,73,0,0,1,42.42,157c-7.5,4.91-15.53,8.94-24.49,10.5a25,25,0,0,1-7.67.11c-6.45-1-9.4-8.25-5.06-13.11a26.93,26.93,0,0,1,8.91-6.26C23.19,144.21,32.93,143,44.05,142.75Z"/><path class="cls-1" d="M20.18,93.16C9.19,93.39-.95,92,.07,85.87s12.71-7,17.25-7.47a130.3,130.3,0,0,1,31.82.26,17.55,17.55,0,0,1,5.79,2c3.37,1.83,3.56,5,.21,6.74a31.22,31.22,0,0,1-9.9,3.37A221,221,0,0,1,20.18,93.16Z"/><path class="cls-1" d="M52.8,217.18a30.12,30.12,0,0,1-1.6,4.54c-6.94,13-15.79,24.47-27.44,33.6a30.37,30.37,0,0,1-7.34,4.05c-3.28,1.32-6.55,1.16-9.12-1.76s-2.24-6-.65-9a36,36,0,0,1,5.79-8c9.74-9.85,21.29-17.11,33.85-22.79a40.07,40.07,0,0,1,5.7-1.62Z"/><path class="cls-1" d="M138.09,255.38c4.8,2.61,7.09,15.4,8.51,20.23,2.67,9,6.28,22.4,2.32,31.54-1,2.29-3,4.3-5.51,4.54-2.68.26-5.19-1.6-6.53-3.94-2.61-4.56-3.88-12.31-4-17.51-.17-8.68.75-17.35,1.34-26,.2-2.86.45-5.87,2.07-8.23C136.87,255.17,137.48,255.05,138.09,255.38Z"/><path class="cls-1" d="M188,240.9c.6-2.19,1.43-6.08,2.79-9.78.8-2.17,2.57-3.5,5.33-2.39,10.74,4.31,17.44,23.11,11.72,33.21a20.8,20.8,0,0,1-3.18,4.24c-3.87,4-8,3.65-11.1-1C189,258.38,188.44,250.54,188,240.9Z"/><path class="cls-1" d="M199.82,79.89a87.12,87.12,0,0,1,13.6,5.24c6.2,2.81,12.14,6.2,18.42,8.8,9.28,3.84,12.59,2,15.08-7.57,4.38-16.79-5.55-38.61-21.89-48.27l-39.62,1.37c-6.64,4.78-12.12,11.2-18,17-1.76,1.75-3.1,4.85-5.2,5.76-1.46-5.35,1.9-12.29,1.7-18,0-.36,0-.73,0-1.1a42.74,42.74,0,0,0-4.66-17.1C151.82,11.78,135.56,2.64,119.94.44c-14.89-2.09-31.32,3.1-37.06,18.24-.92,2.4-1.36,5.46.47,7.26a7.44,7.44,0,0,0,3.16,1.55c9.42,2.81,19.08,4.42,28.24,8.15,7.48,3,25.82,11.88,24.52,21.49a11.63,11.63,0,0,1-5.3.62,84,84,0,0,1-9.4-2.6C114.06,52,103.51,49,92.37,49.23L79.61,51.14c-5.26,2.77-30.26,16.57-12.94,20.55A64.72,64.72,0,0,0,76.79,73c12.87.89,25.76,1.41,38.6,2.61a35.77,35.77,0,0,1,12.54,3.94c1.76.89,3.44,4.18,3.18,6.12s-2.79,4.09-4.81,4.85a36.5,36.5,0,0,1-10.42,1.92c-12,.8-24,.91-35.9,2.12-10.67,1.09-21,4-29.59,11-7,5.75-11.53,13.07-12.65,22.19-.49,4,1.43,6.59,5.51,7.16A15.34,15.34,0,0,0,49,135c12.45-3.13,24.8-6.67,37.3-9.62a117.18,117.18,0,0,1,19.2-2.75c1.79-.12,4.67,1.85,5.36,3.55s-.1,4.78-1.39,6.3a24.47,24.47,0,0,1-7.66,5.89c-10.2,5-20.59,9.7-30.87,14.59s-20.32,10.45-28,19.26c-6.85,7.87-8.78,17-6.35,27,1.67,6.87,6,9.22,12.21,5.82a116.46,116.46,0,0,0,16-11.13c7.09-5.61,13.69-11.84,20.86-17.34a53.36,53.36,0,0,1,12-6.6c3.14-1.32,7.06-.95,8.61,2.4a9.2,9.2,0,0,1-.64,7.68,88,88,0,0,1-10.84,12.86c-8.6,8.59-17.82,16.58-26.09,25.46A70.84,70.84,0,0,0,57,235.5c-3.56,7.36-1.47,13.49,5,18.37,9.07,6.8,18.9,12.23,30.08,14.74,16.08,3.62,32.39-.12,31.61-23.65a209.54,209.54,0,0,1,1.45-31.07c.73-6.32,3.13-12.51,5.31-18.57a6.06,6.06,0,0,1,4.77-3.19c1.45.1,3.15,2.37,4,4.05a24.77,24.77,0,0,1,2.06,7.21c1.68,11.12,2.94,22.31,4.88,33.38a172.08,172.08,0,0,0,5.21,20.54c1,3.3,3.87,4.46,7.18,2.81,9.87-4.89,17.14-12.05,19.79-23.15,2.32-9.72.08-18.84-3.78-27.66-4.16-9.49-8.82-18.77-12.8-28.33a37.51,37.51,0,0,1-2.53-12c-.1-1.72,1.64-4.28,3.25-5.11.95-.49,3.92,1.23,4.84,2.68,3.25,5.1,6.06,10.49,8.95,15.82,5.14,9.5,9.7,19.36,15.48,28.45,5.5,8.66,10.77,8.23,16.77-.17.43-.6.82-1.23,1.19-1.87,11.88-20.82,7.21-50.1-10.62-66-3.52-3.13-7.34-5.91-11-8.85,6.07,2.1,12,4.51,17.15,8.08,8.46,5.91,16.6,12.33,24.5,19,5.74,4.84,10.07,4.25,13.12-2.68a13.34,13.34,0,0,0,.9-2.5c3.42-16.32.23-30.89-11.72-43-8.26-8.35-18.64-13.49-29-18.63-2.76-1.36-5.81-2.8-7.69-5.07A8.9,8.9,0,0,1,194,82C194.33,80.75,198.07,79.43,199.82,79.89Zm-40.9,26.6c-5.42,15.57-10.19,31.57-16.75,46.7-1.77,4.08-4,10-8.33,12-7.7,3.56-6-12.3-5.21-15.7a230.49,230.49,0,0,1,8.92-30.71c2.93-8,5.86-19.31,11-26,4-5.18,10.89-4.17,12.17,2.91.06.35.11.7.14,1C161.12,100,160,103.34,158.92,106.49Z"/></g></g></svg>