<svg xmlns="http://www.w3.org/2000/svg" viewBox="0 0 223.52 294.95"><defs><style>.cls-1{fill:#fad6d1;}</style></defs><title>PericiaJudicialPapaHoe-ELEMENTS-LaLinea-Grupo-RosaSummer</title><g id="Layer_2" data-name="Layer 2"><g id="Layer_1-2" data-name="Layer 1"><path class="cls-1" d="M215.39,227.13c6.71,11.31,10,24.74,7,37.61-2.54,11-11.79,22.17-25.29,17.26-6.31-2.3-9.94-14-14.22-15.18-7-1.87-14.55,8.65-17.12,12.95a46.83,46.83,0,0,1-5.16,7.8c-8.36,9.2-19.72,10.25-27.69.6-5-6.08-8.12-14.36-18.08-13.27C104.36,276.05,104.48,287,97.48,292c-10.78,7.72-22.33-1.08-28.89-9-7.07-8.58-15.41-18.94-25.32-7.34-3.49,4.08-4.7,10.58-10.73,12.49-17.48,5.55-19.75-24.24-30.88-28.9-1.88-.79-2.42-10.21-.27-10.38,15-1.17,11.69,20.4,26.57,19.68,11.3-.56,11.08-16.92,23.82-16.41,14.69.58,18.38,19.61,33.24,21.33C99.36,275,98.51,259,109,254.19c10-4.57,17.11,1,22.65,8.21,15.29,19.94,25.16,3.37,35.08-11.81,5-7.61,11.07-11.89,18.95-5.16,5.56,4.74,6.86,13.62,16,14,13.25.59,11.16-9.62,8.95-18C210,239.38,211.55,220.66,215.39,227.13Z"/><path class="cls-1" d="M13,166.19c-2.21,8.39-4.3,18.6,9,18,9.09-.41,10.39-9.29,16-14,7.88-6.72,14-2.45,19,5.16,9.92,15.18,19.79,31.76,35.08,11.81,5.54-7.22,12.66-12.77,22.65-8.21,10.44,4.78,9.59,20.84,23.93,19.19,14.86-1.71,18.55-20.75,33.24-21.33,12.74-.51,12.52,15.85,23.82,16.41,14.88.73,11.6-20.85,26.57-19.68,2.15.17,1.61,9.6-.27,10.38-11.13,4.66-13.4,34.46-30.88,28.9-6-1.91-7.24-8.41-10.73-12.49-9.91-11.6-18.25-1.23-25.32,7.34-6.56,8-18.11,16.77-28.89,9.06-7-5-6.88-15.91-17.39-17.06-10-1.09-13.06,7.18-18.08,13.26-8,9.65-19.33,8.6-27.69-.6a46.83,46.83,0,0,1-5.16-7.8c-2.57-4.3-10.16-14.81-17.12-12.95-4.29,1.15-7.92,12.88-14.22,15.18-13.5,4.91-22.75-6.21-25.29-17.26-2.95-12.86.33-26.3,7-37.61C12,145.4,13.54,164.12,13,166.19Z"/><path class="cls-1" d="M215.39,76.61c6.71,11.31,10,24.75,7,37.61-2.54,11-11.79,22.18-25.29,17.26-6.31-2.3-9.94-14-14.22-15.18-7-1.86-14.55,8.65-17.12,13a47.33,47.33,0,0,1-5.16,7.81c-8.36,9.2-19.72,10.24-27.69.59-5-6.07-8.12-14.35-18.08-13.26-10.51,1.15-10.39,12-17.39,17.06-10.78,7.71-22.33-1.08-28.89-9-7.07-8.58-15.41-19-25.32-7.35-3.49,4.08-4.7,10.58-10.73,12.5-17.48,5.55-19.75-24.24-30.88-28.9-1.88-.79-2.42-10.22-.27-10.38,15-1.17,11.69,20.4,26.57,19.67C39.26,117.39,39,101,51.78,101.53c14.69.59,18.38,19.62,33.24,21.33,14.34,1.65,13.49-14.41,23.93-19.19,10-4.56,17.11,1,22.65,8.22,15.29,19.94,25.16,3.36,35.08-11.81,5-7.61,11.07-11.89,18.95-5.17,5.56,4.74,6.86,13.62,16,14,13.25.6,11.16-9.62,8.95-18C210,88.86,211.55,70.14,215.39,76.61Z"/><path class="cls-1" d="M13,15.68c-2.21,8.39-4.3,18.6,9,18,9.09-.4,10.39-9.28,16-14,7.88-6.72,14-2.44,19,5.17C66.76,40,76.63,56.57,91.92,36.63c5.54-7.23,12.66-12.78,22.65-8.21C125,33.19,124.16,49.26,138.5,47.6c14.86-1.71,18.55-20.74,33.24-21.32,12.74-.51,12.52,15.85,23.82,16.4,14.88.73,11.6-20.84,26.57-19.67,2.15.17,1.61,9.59-.27,10.38-11.13,4.66-13.4,34.45-30.88,28.9-6-1.92-7.24-8.41-10.73-12.49-9.91-11.61-18.25-1.24-25.32,7.34-6.56,8-18.11,16.77-28.89,9-7-5-6.88-15.91-17.39-17.06C98.69,48,95.59,56.32,90.57,62.4c-8,9.65-19.33,8.6-27.69-.6A47.25,47.25,0,0,1,57.72,54c-2.57-4.3-10.16-14.82-17.12-13-4.29,1.15-7.92,12.88-14.22,15.17C12.88,61.14,3.63,50,1.09,39c-2.95-12.86.33-26.29,7-37.61C12-5.12,13.54,13.6,13,15.68Z"/></g></g></svg>