<svg xmlns="http://www.w3.org/2000/svg" viewBox="0 0 407.78 54.5"><defs><style>.cls-1{fill:#335cb1;}</style></defs><title>PericiaJudicialPapaHoe-ELEMENTS-LaLinea</title><g id="Layer_2" data-name="Layer 2"><g id="Layer_1-2" data-name="Layer 1"><path class="cls-1" d="M.69,35.43C3.8,43.21,8.63,51.85,18.43,50.1,26.74,48.61,33.78,41.41,40,36.21,46.52,30.73,55.6,23.07,64.8,25.35s14,12.34,19.75,18.81S98,54,106.06,48.74,116,33.59,123,27.56c5.64-4.9,17.45-6.72,23.91-2.63,6.24,4,9.91,10.85,14.38,16.5,5.09,6.43,12.18,12.13,20.62,13s15.31-3.86,19-11.22c1.93-3.81,3.14-8.1,6.16-11.25A16.9,16.9,0,0,1,218.5,27c7.62-.38,12.63,3.71,16.33,9.89,3,5.07,5.88,11.46,11.63,13.94,7.83,3.39,15.38-2.38,20.65-7.68,6.69-6.75,13.45-16.36,23.91-16.81,10.93-.47,17.87,8.74,23.06,17,2.22,3.54,4.7,7.41,8.73,9,4.71,1.89,9.41-.05,13.38-2.76,8.62-5.9,15.1-14.53,22.63-21.66,7.37-7,18.25-16.54,27.34-6.78,7.68,8.25,10.37,20.11,17.56,28.84,2,2.45,3.3-.93,3.69-2.74.69-3.13.47-7.29-1.23-10.1-7.11-11.72-15.34-43.57-34.73-36.1-8.56,3.3-15.36,10.91-21.53,17.41-5.72,6-14,17.34-23,17.88-4.52.27-7.27-2.95-9.55-6.39-2.77-4.19-5.31-8.41-8.8-12.07-6.27-6.56-15.3-10.24-24.1-6.75C274.9,15,269.58,24,262.12,30.45c-5.75,5-13.56,7.6-19.34,1.37-4.29-4.62-6.22-11-10.65-15.55-5-5.16-13-6.45-19.66-4-8.27,3-10.51,10.08-14.29,17.24-4.61,8.71-15,10.9-23.69,7-7.56-3.36-12.29-10-17.14-16.4-4.09-5.34-9.11-11.3-16.28-12-8.18-.84-17.68,3-22.54,9.52-5.35,7.21-8.52,17.91-18,20.8C88.76,41.93,82.66,27,77,19.7c-6.62-8.56-15.62-11.64-25.41-6.29-9.2,5-15.82,13.39-24.09,19.65-4.16,3.14-9.37,6.6-14.84,5.89S3.94,33.18,1.59,28.71C.79,27.2.32,29.6.18,30.14a9.49,9.49,0,0,0,.51,5.29Z"/></g></g></svg>