<svg xmlns="http://www.w3.org/2000/svg" viewBox="0 0 185.92 190.78"><defs><style>.cls-1{fill:#335cb1;}</style></defs><title>PericiaJudicialPapaHoe-ELEMENTS-LosPuntitos</title><g id="Layer_2" data-name="Layer 2"><g id="Layer_1-2" data-name="Layer 1"><path class="cls-1" d="M61,69.53a16.53,16.53,0,0,1-13.41,1.59c-6-1.22-9.32-4.9-10.36-11.58A17.62,17.62,0,0,1,45.8,41.35a17.92,17.92,0,0,1,14.6-1.44c4.68,1.51,8.88,6.24,10.22,11.49a13.56,13.56,0,0,1-3.46,13.09A27.57,27.57,0,0,1,61,69.53Z"/><path class="cls-1" d="M58.41,130.77A12.93,12.93,0,0,1,56.53,118c1.81-4.89,6.28-9,10.85-10.06A16.5,16.5,0,0,1,87.21,128.6c-1.69,6.28-5.16,9.5-11,10.15a15.39,15.39,0,0,1-12.49-2.66A25.48,25.48,0,0,1,58.41,130.77Z"/><path class="cls-1" d="M167.93,84.38a16.58,16.58,0,0,1-12.44-5.29c-4.63-4.07-5.64-8.89-3.22-15.21A17.66,17.66,0,0,1,168.81,52.4a17.92,17.92,0,0,1,13.37,6c3.31,3.64,4.6,9.83,3.15,15.06a13.56,13.56,0,0,1-9.51,9.63A27.72,27.72,0,0,1,167.93,84.38Z"/><path class="cls-1" d="M142.18,190.78a8.68,8.68,0,0,1-6.52-2.78c-2.43-2.13-3-4.66-1.69-8a9.26,9.26,0,0,1,8.67-6,9.4,9.4,0,0,1,7,3.16,8.78,8.78,0,0,1,1.65,7.89,7.11,7.11,0,0,1-5,5.06A14.72,14.72,0,0,1,142.18,190.78Z"/><path class="cls-1" d="M119.18,16.78A8.68,8.68,0,0,1,112.66,14c-2.43-2.13-3-4.66-1.69-8a9.26,9.26,0,0,1,8.67-6,9.4,9.4,0,0,1,7,3.16,8.78,8.78,0,0,1,1.65,7.89,7.11,7.11,0,0,1-5,5.06A14.72,14.72,0,0,1,119.18,16.78Z"/><path class="cls-1" d="M114.39,113.7a13.11,13.11,0,0,1-9.84-4.19c-3.66-3.22-4.46-7-2.54-12a13.93,13.93,0,0,1,13.07-9.08,14.18,14.18,0,0,1,10.58,4.76c2.62,2.87,3.64,7.77,2.5,11.9a10.73,10.73,0,0,1-7.53,7.62A21.68,21.68,0,0,1,114.39,113.7Z"/><path class="cls-1" d="M13.87,112.29a13,13,0,0,1-10.19-4.78c-3.79-3.68-4.62-8-2.64-13.74C3.23,87.47,8.55,83.4,14.59,83.4a14.13,14.13,0,0,1,11,5.43c2.71,3.29,3.78,8.88,2.59,13.6a11.82,11.82,0,0,1-7.8,8.71A21,21,0,0,1,13.87,112.29Z"/></g></g></svg>