<svg xmlns="http://www.w3.org/2000/svg" viewBox="0 0 174 164.36"><defs><style>.cls-1{fill:#f8f8f3;}</style></defs><title>PericiaJudicialLOGO-PapaHoe-LogoMark-Negativo</title><g id="Layer_2" data-name="Layer 2"><g id="Layer_1-2" data-name="Layer 1"><path class="cls-1" d="M171.64,73.33c-11-9.08-23.51-15.77-36.28-21.93C122.3,45.11,108.57,39.78,94.1,38c-17.56-2.2-37,.34-53.91,5.35a83.21,83.21,0,0,0-22,9.73C10.23,58.21,2.42,66.32.47,75.91c-2,9.84,2.61,20.66,9.35,27.69,7.72,8.05,18.57,12.53,29.56,14.49s22.23,1.63,33.38,1.34c8.18-.22,16.39-.41,24.47-1.7,16.27-2.58,31.48-9.49,46.47-16.32a141.2,141.2,0,0,0,15.47-7.85c4.77-2.93,8.2-6.85,12.46-10.29a7,7,0,0,0,.9-.9A6.39,6.39,0,0,0,171.64,73.33ZM95.54,97.81a23.16,23.16,0,0,1-18.1,3.6,17.16,17.16,0,0,1-8-4.06,55.31,55.31,0,0,1-5.78-6.25,33.93,33.93,0,0,1-4.48-7.22,22,22,0,0,1-2.06-8.82C57,68.73,60.61,62.6,65.77,58.9a23.52,23.52,0,0,1,17.82-3.77,22.38,22.38,0,0,1,14.56,9.58,22.84,22.84,0,0,1,6.57,16.7A21.81,21.81,0,0,1,95.54,97.81Zm-37.6,9.86a93.41,93.41,0,0,1-21.65-3.86C29.4,101.66,23,98.43,19,93.69a19.18,19.18,0,0,1-4-8.16,21.65,21.65,0,0,1-.33-9.35C16,70.81,20.05,66,25.53,62.43a67.85,67.85,0,0,1,18.59-7.78,102.31,102.31,0,0,1,10.09-2.16c2.13-.41,4.29-.75,6.41-1l-.32.25a37.4,37.4,0,0,0-8.55,9.78A42.81,42.81,0,0,0,46.9,73.71a35.37,35.37,0,0,0-.55,13.59,29.83,29.83,0,0,0,5.44,12.89,26.36,26.36,0,0,0,9.06,7.66Q59.4,107.78,57.94,107.67Zm93.31-29.14a6.37,6.37,0,0,1-1.33,2.63,23.22,23.22,0,0,1-5.28,5.21c-3.89,2.8-8.32,4.38-12.92,6.47a186.45,186.45,0,0,1-31.09,11.4,37.41,37.41,0,0,0,13-34.85,33.83,33.83,0,0,0-5-12.65c-.42-.51-.86-1-1.32-1.49a166.8,166.8,0,0,1,18.15,6.32c4.52,1.85,8.92,4,13.26,6.33,3.66,1.95,8.22,3.78,11.22,6.87A4.52,4.52,0,0,1,151.25,78.53ZM3.24,29.82C.67,27.17,1,24,3.32,21.35s5-3.06,8.32-.88c4.5,2.92,8.94,5.94,13.13,9.29,3,2.37,3.07,5,.15,7.55-2,1.74-4.23,3.25-6.44,4.93C12.47,39.2,7.8,34.53,3.24,29.82ZM63,5.58a3.34,3.34,0,0,1,.85-3.08C66.72-.36,73.58.39,75.57,3.94a32.48,32.48,0,0,1,3.45,9,12.88,12.88,0,0,1,.6,6.32A9.9,9.9,0,0,1,70,27c-2.3-.06-3.89-1.56-4.47-4.62-.68-3.61-1.16-7.25-1.71-10.89C63.53,9.54,63.24,7.56,63,5.58ZM30.76,13.47c-1.11-2.69-.58-4.86,1.54-6.61s4.44-1.7,6.85-.29c2,1.2,3.05,3.23,4.28,5.08A40.09,40.09,0,0,1,49.25,24c.47,1.86,0,3.1-1.87,3.62s-3.69.86-5.52,1.36c-1.43.4-2-.65-2.74-1.45A47.66,47.66,0,0,1,32.51,17.1C31.92,15.89,31.27,14.71,30.76,13.47Zm65.14,9a104.83,104.83,0,0,0,.84-16.33,5.79,5.79,0,0,1,4-5.81,6,6,0,0,1,7.87,4.76c1.39,7.86-1.07,14.5-6.53,20.12-1.23,1.26-2.67,2.55-4.68,1.64S95.71,24.1,95.9,22.48Zm24.47,6.61c-.67-2.43-.91-4.66.25-6.74,1.52-2.72,3.14-5.39,4.83-8,.94-1.47,2.26-2.51,4.19-2.05,2.1.51,2.36,2.34,2.36,4,0,4.59-.31,9.14-2.8,13.24-1,1.61-2.07,3.24-4,3.08C123,32.38,121.55,30.64,120.37,29.09Zm21.11,11.25c.33-4.4,2.77-8.11,4.31-12.11.77-2,3.82-1.75,4.79.3a10.56,10.56,0,0,1-.19,10.24C148.69,41.76,145.8,42.24,141.48,40.34Zm18,8.66c-1-1.06-1.75-2.38-1-3.92a13.33,13.33,0,0,1,3-4.6c1-1,2.13-2.13,3.91-1.31a3.94,3.94,0,0,1,2.24,4.1A8.25,8.25,0,0,1,162.8,50,2.91,2.91,0,0,1,159.51,49ZM90.17,71.06C94,75.27,93.72,84.6,86.08,86.89c-5.24,1.57-9.49.88-12.84-2.57-3-2.64-3.57-5.86-2.07-9.77A11.26,11.26,0,0,1,90.17,71.06Zm69.12,43c4.65,8.39,6.92,18.36,4.88,27.91-1.76,8.19-8.17,16.45-17.51,12.8-4.37-1.7-6.88-10.4-9.85-11.26-4.82-1.38-10.06,6.42-11.84,9.61a35.38,35.38,0,0,1-3.58,5.79c-5.78,6.83-13.65,7.61-19.17.44-3.47-4.5-5.62-10.65-12.52-9.84-7.27.85-7.18,8.94-12,12.66-7.46,5.73-15.46-.8-20-6.71C52.77,149.06,47,141.37,40.14,150c-2.41,3-3.25,7.84-7.43,9.27-12.1,4.12-13.67-18-21.37-21.45-1.31-.58-1.68-7.58-.19-7.7,10.36-.87,8.09,15.14,18.39,14.6,7.82-.41,7.67-12.56,16.49-12.18,10.17.43,12.72,14.56,23,15.83,9.92,1.22,9.33-10.7,16.56-14.24,6.92-3.39,11.84.73,15.68,6.09,10.58,14.8,17.41,2.5,24.28-8.76,3.45-5.65,7.67-8.82,13.12-3.83,3.85,3.52,4.75,10.11,11,10.41,9.18.44,7.73-7.14,6.2-13.37C155.55,123.12,156.63,109.22,159.29,114Z"/></g></g></svg>