<svg xmlns="http://www.w3.org/2000/svg" viewBox="0 0 579.92 151.44"><defs><style>.cls-1{fill:#f4f5ec;}</style></defs><title>PericiaJudicialPapaHoe-ELEMENTS-Fondito-Arena</title><g id="Layer_2" data-name="Layer 2"><g id="Layer_1-2" data-name="Layer 1"><path class="cls-1" d="M576.42,80.08c4.79-16.4,4.84-35.42-1-48-2.38-5.14-5.21-10.48-10.46-13.64C526.51-4.67,465.39-.37,421.1,1.78,372.31,4.15,324,13.2,275.17,13.67c-57.14.55-114.5.4-171.33,6.37-42,4.41-127.94,4.83-97.42,59q6.39,11.34,13.69,22.28,3,4.44,6.09,8.83c2.14,3,4.42,6.06,7.77,8,4.82,2.86,11,3.07,16.86,3.28C110.7,123.57,166,141,224.6,149.21c29.76,4.16,62.6-1.77,93.06,0,43.11,2.44,86.34,5.6,127.93-6.52,10.86,0,22.24-2.5,32.71-1.61,7.3.62,12,4.45,22.94,1.72,19.38-4.86,35.6-17.17,50.42-28.5a94.59,94.59,0,0,0,12.41-10.66C569.55,97.65,573.73,89.28,576.42,80.08Z"/></g></g></svg>