<svg xmlns="http://www.w3.org/2000/svg" viewBox="0 0 471.84 151.77"><defs><style>.cls-1{fill:#335cb1;}</style></defs><title>PericiaJudicialPapaHoe-ELEMENTS-Fondito-AzulTecnico</title><g id="Layer_2" data-name="Layer 2"><g id="Layer_1-2" data-name="Layer 1"><path class="cls-1" d="M454.37,101.61q-2.58,4.45-5.29,8.83c-1.86,3-3.84,6.06-6.75,8-4.19,2.87-9.58,3.07-14.65,3.28-52,2.13-100,19.57-150.94,27.76-25.85,4.16-54.39-1.76-80.84,0-38.18,2.49-76.47,5.74-113.24-7.23-27.57-9.73-62.2-17.59-76.41-45.86C-13.61,56.89,16.4,3.1,60.7.46,117.46-2.92,175.84,13.35,232.81,14c49.64.55,99.46.4,148.82,6.37,36.5,4.41,111.15,4.83,84.63,59Q460.71,90.67,454.37,101.61Z"/></g></g></svg>