<svg xmlns="http://www.w3.org/2000/svg" viewBox="0 0 571.2 170.82"><defs><style>.cls-1{fill:#0c1827;}</style></defs><title>PericiaJudicialPapaHoe-ELEMENTS-Fondito-AzulMarino</title><g id="Layer_2" data-name="Layer 2"><g id="Layer_1-2" data-name="Layer 1"><path class="cls-1" d="M561.47,131.46c-1.06,2.82-2.15,5.62-3.29,8.41-2.48,6.09-5.27,12.29-10.14,16.72-6.61,6-15.92,7.8-24.72,9.34-16.42,2.88-33,5.77-49.66,4.65-21.5-1.46-42.1-9.56-63.57-11.48-14-1.26-28.13.15-42.18,1.13-69.15,4.79-154.2,6-220.51-17.29-6.32-2.22-12.51-4.93-19.1-6.12S114.75,136,108,135.55c-9.68-.63-19.33-3-29-2.07-10.06,1-19.51,5.3-29.62,5.84-9.45.5-18.57-2.56-28.16-1.44-3.74.43-7.57,1.36-11.18.32C.85,135.55-.43,123.28.1,113.76L2,79.55c.3-5.31.61-10.71,2.44-15.71,2.93-8.06,9.41-14.21,15.68-20.05C32.81,32,45.59,15.66,60.08,6.26,73-2.14,87.7.16,102.64.67c55.83,1.87,110.65,15.25,166.57,15.87,57.16.64,114.54.46,171.39,7.34,23.93,2.89,55.7.2,74.32,16.79,8.92,7.95,12.88,14.37,24.57,20,10,4.81,21.6,7.74,27.82,17.88,6.53,10.63,3.66,24.33-.08,36.23Q564.58,123.19,561.47,131.46Z"/></g></g></svg>